<svg id="Слой_1" data-name="Слой 1" xmlns="http://www.w3.org/2000/svg" viewBox="0 0 50 50"><defs><style>.cls-1{fill:#5ca8dd;}</style></defs><path class="cls-1" d="M23.89,1.15a1.46,1.46,0,0,1,2.22,0L28.68,4.4a1.32,1.32,0,0,0,1.71.35L34,2.86a1.51,1.51,0,0,1,2,.86l1,3.94a1.29,1.29,0,0,0,1.36,1l4.11-.34a1.31,1.31,0,0,1,1.37,1.54l-.68,3.94a1.31,1.31,0,0,0,.85,1.54L48,16.73a1.37,1.37,0,0,1,.68,2.05L46.31,22.2a1.32,1.32,0,0,0,.17,1.71l3.08,2.74a1.28,1.28,0,0,1-.17,2.06l-3.6,2.05a1.33,1.33,0,0,0-.51,1.71l1.54,3.77a1.37,1.37,0,0,1-1,1.88l-4.1.51A1.45,1.45,0,0,0,40.49,40l-.17,4.11a1.26,1.26,0,0,1-1.71,1.2l-3.94-1.2a1.29,1.29,0,0,0-1.54.68l-1.88,3.6a1.33,1.33,0,0,1-2.06.51l-3.25-2.57a1.56,1.56,0,0,0-1.71,0l-3.42,2.74a1.32,1.32,0,0,1-2.06-.51L16.87,45a1.49,1.49,0,0,0-1.54-.69l-3.94,1.2a1.34,1.34,0,0,1-1.71-1.2l-.17-4.11a1.46,1.46,0,0,0-1.2-1.37l-4.1-.51a1.37,1.37,0,0,1-1-1.88l1.54-3.77a1.55,1.55,0,0,0-.51-1.71L.61,28.88a1.3,1.3,0,0,1-.17-2.06l3.08-2.73a1.33,1.33,0,0,0,.17-1.72L1.3,19A1.37,1.37,0,0,1,2,16.9l3.94-1.37A1.23,1.23,0,0,0,6.77,14l-.68-3.94A1.25,1.25,0,0,1,7.46,8.51l4.11.34a1.29,1.29,0,0,0,1.36-1l1-3.94A1.46,1.46,0,0,1,16,3l3.6,1.89a1.32,1.32,0,0,0,1.71-.35Z"/></svg>