<svg width="174" height="172" viewBox="0 0 174 172" fill="none" xmlns="http://www.w3.org/2000/svg">
<path d="M83.2551 1.83622C85.1505 -0.612074 88.8496 -0.612074 90.7449 1.83623L99.5445 13.204C100.961 15.0335 103.494 15.5714 105.532 14.4759L118.198 7.66805C120.926 6.20185 124.304 7.70519 125.039 10.7122L128.452 24.6745C129.002 26.9215 131.096 28.4422 133.404 28.2699L147.746 27.1993C150.834 26.9687 153.309 29.7155 152.757 32.7613L150.192 46.9037C149.779 49.1798 151.074 51.4204 153.253 52.2012L166.79 57.0528C169.705 58.0977 170.849 61.613 169.104 64.171L161.006 76.0479C159.702 77.9594 159.973 80.5326 161.646 82.1318L172.038 92.0671C174.276 94.2065 173.89 97.8821 171.255 99.5105L159.023 107.069C157.054 108.285 156.254 110.745 157.132 112.886L162.582 126.187C163.756 129.051 161.907 132.252 158.838 132.669L144.586 134.601C142.293 134.912 140.561 136.835 140.491 139.147L140.057 153.513C139.964 156.608 136.972 158.78 133.999 157.913L120.193 153.885C117.971 153.237 115.607 154.29 114.601 156.373L108.358 169.321C107.014 172.11 103.397 172.878 101.033 170.878L90.0608 161.587C88.2941 160.091 85.706 160.091 83.9393 161.587L72.9666 170.878C70.6034 172.878 66.9863 172.11 65.6414 169.321L59.3984 156.373C58.3936 154.29 56.0287 153.237 53.8068 153.885L40.0014 157.913C37.028 158.78 34.036 156.608 33.9426 153.513L33.5089 139.147C33.4392 136.835 31.7069 134.912 29.4134 134.601L15.1624 132.669C12.0932 132.252 10.244 129.051 11.4179 126.187L16.8686 112.886C17.7458 110.745 16.9459 108.285 14.9772 107.069L2.74492 99.5105C0.110414 97.8821 -0.276146 94.2065 1.9621 92.0671L12.3546 82.1318C14.0272 80.5326 14.2978 77.9594 12.9944 76.0479L4.89582 64.171C3.15168 61.613 4.29448 58.0977 7.21005 57.0528L20.7475 52.2012C22.9262 51.4204 24.2206 49.1798 23.8079 46.9037L21.2433 32.7613C20.691 29.7155 23.1657 26.9687 26.2545 27.1993L40.5961 28.2699C42.9042 28.4422 44.9986 26.9215 45.5478 24.6745L48.9607 10.7123C49.6958 7.70519 53.0744 6.20185 55.8024 7.66805L68.4682 14.4759C70.5063 15.5714 73.0392 15.0335 74.4556 13.204L83.2551 1.83622Z" fill="#FFE600"/>
</svg>
