<svg width="84" height="855" viewBox="0 0 84 855" fill="none" xmlns="http://www.w3.org/2000/svg">
<path d="M74.435 2C46.883 7.15122 2 35.329 2 89.0997C2 142.87 47.7718 178.279 74.435 186.865C60.2146 197.883 17.1091 223.725 17.1091 273.52C17.1091 323.315 60.2146 351.334 74.435 361.064C65.5472 372.654 37.9953 399.641 37.9953 447.72C37.9953 490.646 65.5472 517.784 74.435 530.375C67.9173 540.678 50.4381 577.478 50.4381 615.253C50.4381 653.029 67.9173 688.285 74.435 701.02C69.6949 715.901 60.2146 742.678 60.2146 779.166C60.2146 815.654 72.8056 840.694 75.7681 853" stroke="#D6D6D6" stroke-width="3" stroke-linecap="round" stroke-linejoin="round"/>
<path d="M65.9922 848.278L76.2131 853L82.4345 843.556" stroke="#D6D6D6" stroke-width="3" stroke-linecap="round" stroke-linejoin="round"/>
<path d="M16.0299 6.30314C16.3512 5.8983 16.9783 5.8983 17.2996 6.30314L18.7915 8.18284C19.0316 8.48535 19.461 8.57429 19.8065 8.39314L21.9539 7.26745C22.4163 7.02501 22.9891 7.27359 23.1137 7.77081L23.6924 10.0795C23.7855 10.4511 24.1405 10.7025 24.5318 10.674L26.9633 10.497C27.4868 10.4589 27.9065 10.9131 27.8128 11.4167L27.378 13.7552C27.308 14.1315 27.5275 14.502 27.8969 14.6311L30.1919 15.4334C30.6862 15.6062 30.88 16.1874 30.5842 16.6104L29.2113 18.5743C28.9903 18.8903 29.0362 19.3158 29.3198 19.5803L31.0816 21.2231C31.4611 21.5768 31.3956 22.1846 30.9489 22.4539L28.8751 23.7037C28.5414 23.9048 28.4057 24.3116 28.5545 24.6656L29.4786 26.8648C29.6775 27.3386 29.3641 27.8678 28.8437 27.9367L26.4276 28.2563C26.0389 28.3077 25.7451 28.6256 25.7333 29.0079L25.6598 31.3834C25.644 31.895 25.1367 32.2543 24.6327 32.1108L22.2922 31.4449C21.9155 31.3377 21.5146 31.5118 21.3441 31.8563L20.2857 33.9973C20.0578 34.4585 19.4446 34.5855 19.0439 34.2547L17.1837 32.7184C16.8841 32.4711 16.4454 32.4711 16.1458 32.7184L14.2856 34.2547C13.885 34.5855 13.2717 34.4585 13.0437 33.9973L11.9853 31.8563C11.815 31.5118 11.414 31.3377 11.0374 31.4449L8.69685 32.1108C8.19277 32.2543 7.68552 31.895 7.66968 31.3834L7.59616 29.0079C7.58433 28.6256 7.29065 28.3077 6.90182 28.2563L4.48579 27.9367C3.96545 27.8678 3.65194 27.3386 3.85097 26.8648L4.77505 24.6656C4.92376 24.3116 4.78814 23.9048 4.45438 23.7037L2.38059 22.4539C1.93395 22.1846 1.86842 21.5768 2.24788 21.2231L4.00977 19.5803C4.29333 19.3158 4.3392 18.8903 4.11824 18.5743L2.74524 16.6104C2.44955 16.1874 2.6433 15.6062 3.13759 15.4334L5.43266 14.6311C5.80202 14.502 6.02146 14.1315 5.9515 13.7552L5.51671 11.4167C5.42307 10.9131 5.84262 10.4589 6.36627 10.497L8.79768 10.674C9.18898 10.7025 9.54405 10.4511 9.63717 10.0795L10.2158 7.77082C10.3404 7.27359 10.9132 7.02501 11.3757 7.26745L13.523 8.39314C13.8685 8.57429 14.2979 8.48535 14.538 8.18284L16.0299 6.30314Z" fill="#FF8C37"/>
<path d="M18.3549 343.516C25.9081 343.516 32.0285 337.397 32.025 329.848C32.0216 322.3 25.8956 316.181 18.3424 316.181C10.7891 316.181 4.66881 322.3 4.67226 329.848C4.67571 337.397 10.8016 343.516 18.3549 343.516Z" fill="#41AFFF"/>
<path d="M52.6597 701.909L59.3255 703.695L64.2053 708.574L65.9913 715.24L64.2053 721.906L59.3255 726.786L52.6597 728.572L45.9939 726.786L41.1142 721.906L39.3281 715.24L41.1142 708.574L45.9939 703.695L52.6597 701.909Z" fill="#19E075"/>
<path fill-rule="evenodd" clip-rule="evenodd" d="M54.6152 528.598H47.1495L47.1495 532.917L44.163 529.931L38.8839 535.21L41.8705 538.196H37.5508L37.5508 545.662H42.0069L38.8845 548.784L44.1635 554.064L47.1495 551.078V555.261H54.6152V550.941L57.7376 554.064L63.0167 548.784L59.8943 545.662H64.214L64.214 538.196H60.0306L63.0172 535.21L57.7381 529.931L54.6152 533.054L54.6152 528.598Z" fill="#FFE600"/>
</svg>
