<svg id="Слой_1" data-name="Слой 1" xmlns="http://www.w3.org/2000/svg" viewBox="0 0 158.47 1220.57"><defs><style>.cls-1{fill:none;stroke:#d6d6d6;stroke-linecap:round;stroke-linejoin:round;stroke-width:3px;}</style></defs><path class="cls-1" d="M135.76,193.15c-27.6,5.1-72.5,33.3-72.5,87.1s45.8,89.2,72.4,97.8c-14.2,11-57.3,36.9-57.3,86.7s43.1,77.8,57.3,87.5c-8.9,11.6-36.4,38.6-36.4,86.7,0,42.9,27.6,70.1,36.4,82.7-6.5,10.3-24,47.1-24,84.9s17.5,73,24,85.8a291.53,291.53,0,0,0,.65,183.39v134.94"/><path class="cls-1" d="M127.5,1204l8.79,7,8.26-7.65"/><path class="cls-1" d="M28.23,96.19v0Z"/><path class="cls-1" d="M28.23,96.06v0Z"/><path class="cls-1" d="M52.18,156.82C36.85,139.35,28,117.59,28.23,96.19,27.36,126.73,44.69,148.36,52.18,156.82Z"/><path class="cls-1" d="M55.64,160.58c-.54-.57-1.09-1.13-1.62-1.72C54.55,159.44,55.09,160,55.64,160.58Z"/><path class="cls-1" d="M53.61,158.42l-1.43-1.6C52.65,157.36,53.12,157.89,53.61,158.42Z"/><path class="cls-1" d="M53.89,158.73a1.59,1.59,0,0,0,.13.13c-.14-.15-.28-.29-.41-.44Z"/><path class="cls-1" d="M69.68,172.76a107.47,107.47,0,0,0,66,20.39C128.75,193.18,97.6,192.68,69.68,172.76Z"/><path class="cls-1" d="M135.66,193.15h0Z"/><path class="cls-1" d="M55.64,160.58a98.21,98.21,0,0,0,14,12.18A106.71,106.71,0,0,1,55.64,160.58Z"/><path class="cls-1" d="M71.79,24.55C48.49,39.17,32.42,62,29,86.52A72.24,72.24,0,0,0,28.23,96C29.5,54.22,63.9,29.78,71.79,24.55Z"/><path class="cls-1" d="M135.66,8.25h.1c-9.71-.69-37.27-1.38-64,16.3h0A109,109,0,0,1,135.66,8.25Z"/></svg>