<svg width="176" height="207" viewBox="0 0 176 207" fill="none" xmlns="http://www.w3.org/2000/svg">
<rect x="10.6753" y="56.3562" width="128.968" height="99.7066" rx="18" fill="#FF8C37"/>
<rect x="65.0493" y="99.0988" width="8.25314" height="3.90938" rx="1.95469" fill="white"/>
<rect x="76.7778" y="99.0982" width="8.25314" height="3.90938" rx="1.95469" fill="white"/>
<circle cx="71.9547" cy="101.053" r="1.95469" fill="black"/>
<circle cx="83.6827" cy="101.053" r="1.95469" fill="black"/>
<path d="M68.0898 106.482C68.7414 107.496 71.087 109.48 75.257 109.306C79.427 109.132 81.9175 107.351 82.6414 106.482" stroke="black" stroke-width="3" stroke-linecap="round"/>
<circle cx="28.7199" cy="72.6125" r="2.29319" stroke="black" stroke-width="3"/>
<circle cx="39.5573" cy="72.6125" r="2.29319" stroke="black" stroke-width="3"/>
<circle cx="50.3952" cy="72.6125" r="2.29319" stroke="black" stroke-width="3"/>
<rect x="139.643" y="57.9819" width="30.8874" height="51.479" rx="9" fill="#41AFFF"/>
<rect x="47.5229" y="156.063" width="80.1988" height="50.9371" rx="9" fill="#41AFFF"/>
<circle cx="155.413" cy="101.874" r="1.7513" stroke="black" stroke-width="3"/>
<circle cx="118.944" cy="181.802" r="2.02224" stroke="black" stroke-width="3"/>
<rect x="11.8149" y="42.1179" width="101.21" height="19.9813" rx="9.99064" transform="rotate(-22.1432 11.8149 42.1179)" fill="#41AFFF"/>
<rect x="10.8379" y="147.818" width="48.5652" height="19.9813" rx="9.99064" transform="rotate(32.8467 10.8379 147.818)" fill="#FF9ACB"/>
<rect x="96.6235" y="2.70935" width="52.0193" height="19.9813" rx="9.99064" transform="rotate(32.8467 96.6235 2.70935)" fill="#FF9ACB"/>
<rect x="113.254" y="30.0488" width="60.7687" height="19.9813" rx="9.99064" transform="rotate(-29.6353 113.254 30.0488)" fill="#19E075"/>
<rect x="170.151" y="160.398" width="7.58637" height="30.3455" rx="3.79319" transform="rotate(90 170.151 160.398)" fill="#FF8C37"/>
<rect x="160.939" y="172.319" width="7.58637" height="21.1335" rx="3.79319" transform="rotate(90 160.939 172.319)" fill="#FF8C37"/>
<rect x="150.644" y="184.24" width="7.58637" height="10.8377" rx="3.79319" transform="rotate(90 150.644 184.24)" fill="#FF8C37"/>
<rect x="160.939" y="196.162" width="7.58637" height="21.1335" rx="3.79319" transform="rotate(90 160.939 196.162)" fill="#FF8C37"/>
</svg>
