<svg width="193" height="165" viewBox="0 0 193 165" fill="none" xmlns="http://www.w3.org/2000/svg">
<rect y="45.7297" width="111.559" height="76.8852" rx="11" fill="#41AFFF"/>
<rect x="111.559" y="70.8556" width="80.9053" height="56.7845" rx="11" fill="#FF9ACB"/>
<rect x="14.5732" y="122.615" width="59.7996" height="41.709" rx="11" fill="#FF9ACB"/>
<rect y="33.2535" width="82.6916" height="16.3254" rx="8.16269" transform="rotate(-22.1432 0 33.2535)" fill="#FF8C37"/>
<rect x="71.5166" y="1.005" width="42.5015" height="16.3254" rx="8.16269" transform="rotate(41.0068 71.5166 1.005)" fill="#FF9ACB"/>
<rect x="81.4077" y="25.4136" width="63.8322" height="16.3254" rx="8.16269" transform="rotate(-23.4613 81.4077 25.4136)" fill="#19E075"/>
<circle cx="92.212" cy="29.3973" r="8.29154" fill="#41AFFF"/>
<circle cx="135.932" cy="10.3016" r="8.29154" fill="#FF8C37"/>
<circle cx="72.1114" cy="12.8142" r="8.29154" fill="#FFE600"/>
<line x1="12.0557" y1="76.8911" x2="58.2974" y2="76.8911" stroke="black" stroke-width="2" stroke-linecap="round"/>
<line x1="22.6079" y1="140.208" x2="47.2413" y2="140.208" stroke="black" stroke-width="2" stroke-linecap="round"/>
<line x1="12.0557" y1="84.4287" x2="58.2974" y2="84.4287" stroke="black" stroke-width="2" stroke-linecap="round"/>
<line x1="22.6079" y1="146.238" x2="38.6985" y2="146.238" stroke="black" stroke-width="2" stroke-linecap="round"/>
<line x1="12.0557" y1="91.9666" x2="43.7243" y2="91.9666" stroke="black" stroke-width="2" stroke-linecap="round"/>
<path d="M170.102 104.518C171.073 104.518 171.861 103.73 171.861 102.759C171.861 101.787 171.073 101 170.102 101C169.131 101 168.343 101.787 168.343 102.759C168.343 103.73 169.131 104.518 170.102 104.518Z" stroke="black" stroke-width="2" stroke-linecap="round" stroke-linejoin="round"/>
<path d="M166 94.1053V89.8947C166 88.8483 165.105 88 164 88C162.895 88 162 88.8483 162 89.8947V94.1053C162 95.1517 162.895 96 164 96C165.105 96 166 95.1517 166 94.1053Z" fill="white"/>
<path d="M177 94.1053V89.8947C177 88.8483 176.105 88 175 88C173.895 88 173 88.8483 173 89.8947V94.1053C173 95.1517 173.895 96 175 96C176.105 96 177 95.1517 177 94.1053Z" fill="white"/>
<mask id="mask0" mask-type="alpha" maskUnits="userSpaceOnUse" x="162" y="88" width="4" height="8">
<path d="M166 94.1053V89.8947C166 88.8483 165.105 88 164 88C162.895 88 162 88.8483 162 89.8947V94.1053C162 95.1517 162.895 96 164 96C165.105 96 166 95.1517 166 94.1053Z" fill="white"/>
</mask>
<g mask="url(#mask0)">
<path d="M167.694 93.9574V89.8489C167.694 88.8278 166.867 88 165.847 88C164.827 88 164 88.8278 164 89.8489V93.9574C164 94.9785 164.827 95.8063 165.847 95.8063C166.867 95.8063 167.694 94.9785 167.694 93.9574Z" fill="black"/>
</g>
<mask id="mask1" mask-type="alpha" maskUnits="userSpaceOnUse" x="173" y="88" width="4" height="8">
<path d="M177 94.1053V89.8947C177 88.8483 176.105 88 175 88C173.895 88 173 88.8483 173 89.8947V94.1053C173 95.1517 173.895 96 175 96C176.105 96 177 95.1517 177 94.1053Z" fill="white"/>
</mask>
<g mask="url(#mask1)">
<path d="M179.234 94.1053V89.8947C179.234 88.8483 178.338 88 177.234 88C176.129 88 175.234 88.8483 175.234 89.8947V94.1053C175.234 95.1517 176.129 96 177.234 96C178.338 96 179.234 95.1517 179.234 94.1053Z" fill="black"/>
</g>
</svg>
