<svg width="183" height="133" viewBox="0 0 183 133" fill="none" xmlns="http://www.w3.org/2000/svg">
<rect y="37.8823" width="55.1765" height="13.1765" rx="6.58824" fill="#FF8C37"/>
<rect x="78.2354" y="6.58826" width="66.7059" height="13.1765" rx="6.58824" fill="#FF8C37"/>
<rect x="96.4678" y="85.7809" width="85.6471" height="13.1765" rx="6.58824" fill="#41AFFF"/>
<rect x="49.998" y="37.0588" width="83.4263" height="13.4444" rx="6.72222" transform="rotate(41.0068 49.998 37.0588)" fill="#FF9ACB"/>
<rect width="60.9908" height="13.4444" rx="6.72222" transform="matrix(0.754631 -0.656149 -0.656149 -0.754631 48.6914 53.9397)" fill="#19E075"/>
<circle cx="84.8234" cy="13.1765" r="13.1765" fill="#41AFFF"/>
<circle cx="119.5" cy="90.5" r="42.5" fill="#FF8C37"/>
<path d="M133.75 77.9404C130.905 77.9404 128.598 75.7151 128.598 72.9702C128.598 70.2252 130.905 68 133.75 68C136.596 68 138.903 70.2252 138.903 72.9702C138.903 75.7151 136.596 77.9404 133.75 77.9404Z" fill="white"/>
<path d="M119.152 77.9404C116.307 77.9404 114 75.7151 114 72.9702C114 70.2252 116.307 68 119.152 68C121.998 68 124.305 70.2252 124.305 72.9702C124.305 75.7151 121.998 77.9404 119.152 77.9404Z" fill="white"/>
<path d="M135.879 77.1387C134.292 77.1387 133.006 75.8433 133.006 74.2453C133.006 72.6473 134.292 71.3518 135.879 71.3518C137.466 71.3518 138.752 72.6473 138.752 74.2453C138.752 75.8433 137.466 77.1387 135.879 77.1387Z" fill="black"/>
<path d="M121.259 77.1387C119.672 77.1387 118.386 75.8433 118.386 74.2453C118.386 72.6473 119.672 71.3518 121.259 71.3518C122.845 71.3518 124.132 72.6473 124.132 74.2453C124.132 75.8433 122.845 77.1387 121.259 77.1387Z" fill="black"/>
<path d="M130.211 81.0461C129.748 81.6671 128.487 83.6503 125.901 83.6503C123.603 83.6503 121.879 81.9142 121.592 81.0461" stroke="black" stroke-width="2" stroke-linecap="round" stroke-linejoin="round"/>
<circle cx="48.5883" cy="44.4706" r="12.3529" fill="#FFE600"/>
</svg>
