<svg id="Слой_1" data-name="Слой 1" xmlns="http://www.w3.org/2000/svg" viewBox="0 0 1190.55 456.14"><defs><style>.cls-1{fill:#1d1d1b;}.cls-2{fill:#b4579d;}.cls-3{fill:#6ec6d3;}.cls-4{fill:#fff;}</style></defs><rect class="cls-1" x="-10.06" y="-2.15" width="1210.66" height="460.43"/><rect class="cls-2" x="304.75" y="250.31" width="19.69" height="112.93" rx="2.02" transform="translate(309.06 -132.6) rotate(45)"/><rect class="cls-2" x="239.06" y="250.35" width="19.69" height="112.93" rx="2.02" transform="translate(641.85 347.77) rotate(135)"/><rect class="cls-3" x="74.42" y="39.04" width="91.52" height="299.73" rx="4.13"/><path class="cls-2" d="M232.71,419.42H214.14a13.56,13.56,0,0,1-13.56-13.56V293.38c-5.23-15.8-2.75-28.45,3.42-31.25,1.07-.49,4.3-1.6,10.23,1.51l18.48,16.19a13.56,13.56,0,0,1,13.56,13.55V405.86A13.56,13.56,0,0,1,232.71,419.42Z"/><path class="cls-2" d="M330.57,419.42h18.58a13.56,13.56,0,0,0,13.56-13.56V293.38c5.23-15.8,2.75-28.45-3.42-31.25-1.07-.49-4.3-1.6-10.23,1.51l-18.49,16.19A13.55,13.55,0,0,0,317,293.38V405.86A13.56,13.56,0,0,0,330.57,419.42Z"/><rect class="cls-3" x="178.55" y="26.43" width="150.1" height="211.03" rx="4.13" transform="translate(385.55 -121.66) rotate(90)"/><path class="cls-4" d="M397,140v69.16h41.64V153.38H424.85v13.39h-14.5V140h42.39v82.54h-69.9V140Z"/><path class="cls-4" d="M535.28,140v13l-55.77,55.77h54.84v13.76H465V202.46l49.08-49.08H479.51v13.39H465V140Z"/><path class="cls-4" d="M618.84,140v13l-55.77,55.77h54.84v13.76H548.57V202.46l49.08-49.08H563.07v13.39h-14.5V140Z"/><path class="cls-4" d="M632.13,40.73h40.53V82.28l-13.76.09V54.86H645.52V208.41h41.64V139.26l13.38-.09v83.37H632.13Z"/><path class="cls-4" d="M713.74,138.42h67.67v41.64H740.88V165.93H768V152.55h-40.9V208H768V194.56h14.12v28l-68.41-.09Z"/><path class="cls-4" d="M197.6,237.47h3.83a6.87,6.87,0,0,1,4.86,2L276.85,310a6.86,6.86,0,0,0,9.7,0l70.57-70.56a6.83,6.83,0,0,1,4.85-2h3.83a6.86,6.86,0,0,1,6.86,6.85l.09,169.32a6.87,6.87,0,0,1-6.86,6.87h-42a6.86,6.86,0,0,1-6.86-6.86V343.93a6.86,6.86,0,0,1,6.86-6.86h.56a6.86,6.86,0,0,1,6.86,6.86v55.81a6.86,6.86,0,0,0,6.86,6.86h14.1a6.86,6.86,0,0,0,6.86-6.86V274.68a6.86,6.86,0,0,0-11.71-4.85l-60.87,60.8a6.87,6.87,0,0,1-9.7,0l-60.49-60.42a6.86,6.86,0,0,0-11.71,4.85V399.74a6.86,6.86,0,0,0,6.86,6.86h14.1a6.86,6.86,0,0,0,6.86-6.86V372.12a6.86,6.86,0,0,1,6.85-6.86h0a6.86,6.86,0,0,1,6.86,6.86V414.4a6.86,6.86,0,0,1-6.86,6.86H197.6a6.86,6.86,0,0,1-6.85-6.86V244.33A6.86,6.86,0,0,1,197.6,237.47Z"/><path class="cls-4" d="M97.76,51.63V304.07a11.36,11.36,0,0,0,11.36,11.36h22.73a11.36,11.36,0,0,0,11.36-11.36V282a11.37,11.37,0,0,1,11.36-11.36h0A11.37,11.37,0,0,1,165.94,282v45.45a11.36,11.36,0,0,1-11.37,11.36H85.78a11.36,11.36,0,0,1-11.36-11.36V51.63A11.37,11.37,0,0,1,85.78,40.27h.62A11.37,11.37,0,0,1,97.76,51.63ZM131.85,39H361.56a11.36,11.36,0,0,1,11.36,11.37V212.55a11.36,11.36,0,0,1-11.36,11.37H133.08a11.37,11.37,0,0,1-11.37-11.37v-70a11.37,11.37,0,0,1,11.37-11.37H269.43a11.36,11.36,0,0,1,11.36,11.37v.61a11.35,11.35,0,0,1-11.36,11.36H155.19a11.36,11.36,0,0,0-11.36,11.37V188.6A11.36,11.36,0,0,0,155.19,200H338.84A11.37,11.37,0,0,0,350.2,188.6V73.74a11.37,11.37,0,0,0-11.36-11.36h-207A11.37,11.37,0,0,1,120.48,51v-.61A11.37,11.37,0,0,1,131.85,39Z"/><path class="cls-4" d="M454,237v83.43H383v-41h42.1V293H397.63v13.9h42.1V250.47h-42.1v13.91H383V237Z"/><path class="cls-4" d="M536.51,237v83.43H494V293.32h14.28v13.53h13.53v-56H479.76v69.53H465.47V237Z"/><path class="cls-4" d="M619,237v83.43H548v-41h42.1V293H562.63v13.9h42.1V250.47h-42.1v13.91H548V237Z"/><path class="cls-4" d="M630.47,235.63h69.16v55.91l-13.53.09V249.91H644v56.38h55.63V419.42H630.47v-71h41.35V363H644.38v41.72h41.34V321H630.47Z"/><path class="cls-4" d="M712.69,235.35H781.1v42.09h-41V263.16h27.43V249.63H726.22v56h41.34V292.1h14.29v28.28l-69.16-.09Z"/><path class="cls-4" d="M865.29,237v83.43H850.63V250.47H836.72v27.82H822.44V250.47H808.91v69.91H794.63V237Z"/><path class="cls-4" d="M878.91,235.35h68.41v42.09h-41V263.16h27.44V249.63H892.44v56h41.35V292.1h14.28v28.28l-69.16-.09Z"/><path class="cls-4" d="M1031.88,237v83.43H989.41V293.32h14.28v13.53h13.53v-56H975.13v69.53H960.85V237Z"/><path class="cls-4" d="M1113.25,138.1v69.53H1099v-56h-13.9v84.56h27.43v14.28h-27.43v56h42.47V279h14.28v41l-.38.37h-70.66V250.47h-27.43V236.19h27.43V138.1Z"/></svg>