<?xml version="1.0" encoding="utf-8"?>
<!-- Generator: Adobe Illustrator 26.0.1, SVG Export Plug-In . SVG Version: 6.00 Build 0)  -->
<svg version="1.1" id="Слой_1" xmlns="http://www.w3.org/2000/svg" xmlns:xlink="http://www.w3.org/1999/xlink" x="0px" y="0px"
	 viewBox="0 0 315.8 73.2" style="enable-background:new 0 0 315.8 73.2;" xml:space="preserve">
<style type="text/css">
	.st0{fill:#F5E6F2;}
	.st1{fill:#EA5151;}
	.st2{fill:#F28A3D;}
	.st3{fill:#FFE609;}
	.st4{fill:#5DB56C;}
	.st5{fill:#5CA8DD;}
	.st6{fill:#B7AFD7;}
	.st7{clip-path:url(#SVGID_00000145024646286507070900000004164843258108182414_);}
	.st8{fill:#020203;}
	.st9{fill-rule:evenodd;clip-rule:evenodd;fill:#5CA8DD;}
	.st10{fill:#F29AC2;}
	.st11{fill-rule:evenodd;clip-rule:evenodd;fill:#F29AC2;}
	.st12{fill:none;stroke:#020203;stroke-width:2;stroke-linecap:round;stroke-miterlimit:10;}
	.st13{fill:none;stroke:#020203;stroke-width:2;stroke-linecap:round;stroke-linejoin:round;}
</style>
<text transform="matrix(1 0 0 1 4.3299 -25.7336)" style="font-family:'WTFAfroboy-Regular'; font-size:21.6399px;">delegation</text>
<g>
	<text transform="matrix(1 0 0 1 4.33 -8.8827)" style="font-family:'WTFAfroboy-Regular'; font-size:21.6399px;">puzzle</text>
</g>
<text transform="matrix(1 0 0 1 91.415 -8.8834)" style="font-family:'WTFAfroboy-Regular'; font-size:21.6399px;">i</text>
<text transform="matrix(1 0 0 1 102.148 -8.8834)" style="font-family:'WTFAfroboy-Regular'; font-size:21.6399px;">i</text>
<text transform="matrix(1 0 0 1 112.8809 -8.8834)" style="font-family:'WTFAfroboy-Regular'; font-size:21.6399px;">i</text>
<text transform="matrix(1 0 0 1 123.6139 -8.8834)" style="font-family:'WTFAfroboy-Regular'; font-size:21.6399px;">i</text>
<text transform="matrix(1 0 0 1 134.3469 -8.8834)" style="font-family:'WTFAfroboy-Regular'; font-size:21.6399px;">i</text>
<text transform="matrix(1 0 0 1 145.0799 -8.8834)" style="font-family:'WTFAfroboy-Regular'; font-size:21.6399px;">i</text>
<text transform="matrix(1 0 0 1 155.8128 -8.8834)" style="font-family:'WTFAfroboy-Regular'; font-size:21.6399px;">i</text>
<text transform="matrix(1 0 0 1 129.786 172.9506)" style="fill:#EFF0BC; font-family:'WTFAfroboy-Regular'; font-size:18.379px;">i</text>
<g>
	
		<text transform="matrix(-1 0 0 -1 147.7635 157.9184)" class="st2" style="font-family:'WTFAfroboy-Regular'; font-size:18.379px;">i</text>
</g>
<g>
	<text transform="matrix(1 0 0 1 146.8241 172.9506)" class="st3" style="font-family:'WTFAfroboy-Regular'; font-size:18.379px;">i</text>
</g>
<g>
	
		<text transform="matrix(-1 0 0 -1 164.8017 157.9184)" class="st4" style="font-family:'WTFAfroboy-Regular'; font-size:18.379px;">i</text>
</g>
<g>
	
		<text transform="matrix(1 0 0 1 163.8623 172.9506)" style="fill:#A9DBEB; font-family:'WTFAfroboy-Regular'; font-size:18.379px;">i</text>
</g>
<text transform="matrix(-1 0 0 -1 181.8399 157.9184)" class="st5" style="font-family:'WTFAfroboy-Regular'; font-size:18.379px;">i</text>
<text transform="matrix(1 0 0 1 180.9005 172.9506)" style="fill:#B494C5; font-family:'WTFAfroboy-Regular'; font-size:18.379px;">i</text>
<g>
	<g>
		<path class="st0" d="M20.9,2.6c2,0,4,0.4,5.7,1.2c1.8,0.8,3.4,1.8,4.7,3.2c1.3,1.3,2.4,2.9,3.2,4.7c0.8,1.8,1.2,3.7,1.2,5.7v4.8
			c0,1.8-0.3,3.5-1,5.1c-0.7,1.6-1.6,3-2.8,4.2c-1.2,1.2-2.6,2.1-4.2,2.8c-1.6,0.7-3.3,1-5.1,1l-14.3,0c-1,0-1.8-0.3-2.4-1
			c-0.7-0.7-1-1.5-1-2.4V19.4c0-0.7,0.2-1.3,0.6-1.9c0.4-0.5,0.8-1,1.4-1.2c0.4-0.2,0.7-0.4,0.9-0.7C7.9,15.2,8,14.8,8,14.4v-2.6V6
			c0-0.7,0.2-1.3,0.6-1.9s0.9-1,1.5-1.2c0.4-0.2,0.9-0.3,1.3-0.3H20.9z M23.9,9.8c0-0.2-0.1-0.4-0.2-0.5C23.5,9.1,23.3,9,23.1,9
			c-0.5,0-0.7,0.2-0.7,0.7v5.5c0,0.5,0.2,0.7,0.7,0.7c0.2,0,0.4-0.1,0.6-0.2c0.2-0.1,0.2-0.3,0.2-0.5V9.8z"/>
		<path class="st0" d="M64.2,15.9c1,0,1.8,0.3,2.4,1c0.7,0.7,1,1.5,1,2.5v12.4c0,1-0.3,1.8-1,2.4c-0.7,0.7-1.5,1-2.4,1l-23.2,0
			c-1,0-1.8-0.3-2.4-1c-0.7-0.7-1-1.5-1-2.4V19.4c0-0.7,0.2-1.4,0.6-1.9c0.4-0.6,0.9-1,1.5-1.2c0.4-0.2,0.7-0.4,0.9-0.7
			c0.2-0.3,0.3-0.7,0.3-1V6c0-1,0.3-1.8,1-2.4c0.7-0.7,1.5-1,2.4-1h0.8h6.2h1.2h2.8H61c0.9,0,1.7,0.3,2.4,1c0.7,0.7,1,1.5,1,2.4v0.8
			v1.3v0.7c0,0.4-0.2,0.6-0.6,0.6h-3.9c-0.4,0-0.6-0.2-0.6-0.6c0-0.4-0.2-0.7-0.6-0.7h-2.7c-0.4,0-0.6,0.2-0.6,0.7v1.2
			c0,0.2,0.1,0.3,0.2,0.4c0.1,0.1,0.3,0.2,0.5,0.2h1.5c0.3,0,0.6,0.1,0.9,0.3c0.2,0.2,0.3,0.5,0.3,0.9v1.3c0,0.3-0.1,0.6-0.3,0.9
			c-0.2,0.2-0.5,0.4-0.9,0.4h-1.5c-0.4,0-0.6,0.2-0.6,0.6v0.3c0,0.4,0.2,0.6,0.6,0.6H64.2z"/>
		<path class="st0" d="M90.2,16c1,0,1.8,0.3,2.5,1c0.7,0.7,1,1.5,1,2.4v12.5c0,1-0.3,1.8-1,2.4c-0.7,0.7-1.5,1-2.5,1H72.9
			c-1,0-1.8-0.3-2.4-1c-0.7-0.7-1-1.5-1-2.4V19.4c0-0.7,0.2-1.4,0.6-1.9c0.4-0.6,0.9-1,1.5-1.2c0.4-0.2,0.7-0.4,0.9-0.7
			c0.2-0.3,0.3-0.7,0.3-1V6c0-1,0.3-1.8,1-2.4c0.7-0.7,1.5-1,2.4-1h6.3c0.9,0,1.7,0.3,2.3,1c0.6,0.6,0.9,1.4,0.9,2.3V16v2.1
			c0,0.6,0.2,1.1,0.6,1.5c0.4,0.4,1,0.6,1.6,0.5c0.5-0.1,1-0.3,1.3-0.7c0.3-0.4,0.5-0.9,0.5-1.4v-1.5c0-0.2,0.1-0.3,0.2-0.4
			C89.9,16,90,16,90.2,16z"/>
		<path class="st0" d="M122.2,15.9c1,0,1.8,0.3,2.4,1c0.7,0.7,1,1.5,1,2.5v12.4c0,1-0.3,1.8-1,2.4c-0.7,0.7-1.5,1-2.4,1l-23.2,0
			c-1,0-1.8-0.3-2.4-1c-0.7-0.7-1-1.5-1-2.4V19.4c0-0.7,0.2-1.4,0.6-1.9c0.4-0.6,0.9-1,1.5-1.2c0.4-0.2,0.7-0.4,0.9-0.7
			c0.2-0.3,0.3-0.7,0.3-1V6c0-1,0.3-1.8,1-2.4c0.7-0.7,1.5-1,2.4-1h0.8h6.2h1.2h2.8h5.8c0.9,0,1.7,0.3,2.4,1c0.7,0.7,1,1.5,1,2.4
			v0.8v1.3v0.7c0,0.4-0.2,0.6-0.6,0.6h-3.9c-0.4,0-0.6-0.2-0.6-0.6c0-0.4-0.2-0.7-0.6-0.7h-2.7c-0.4,0-0.6,0.2-0.6,0.7v1.2
			c0,0.2,0.1,0.3,0.2,0.4c0.1,0.1,0.3,0.2,0.5,0.2h1.5c0.3,0,0.6,0.1,0.9,0.3c0.2,0.2,0.3,0.5,0.3,0.9v1.3c0,0.3-0.1,0.6-0.3,0.9
			c-0.2,0.2-0.5,0.4-0.9,0.4h-1.5c-0.4,0-0.6,0.2-0.6,0.6v0.3c0,0.4,0.2,0.6,0.6,0.6H122.2z"/>
		<path class="st0" d="M157.7,16c1,0,1.8,0.3,2.5,1c0.7,0.7,1,1.5,1,2.4v12.5c0,1-0.3,1.8-1,2.4c-0.7,0.7-1.5,1-2.5,1l-26.7,0
			c-1,0-1.8-0.3-2.4-1c-0.7-0.7-1-1.5-1-2.4V19.4c0-0.7,0.2-1.3,0.6-1.9c0.4-0.5,0.8-1,1.4-1.2c0.4-0.2,0.7-0.4,0.9-0.7
			c0.2-0.3,0.3-0.7,0.3-1.1v-2.6V6c0-0.7,0.2-1.3,0.6-1.9c0.4-0.6,0.9-1,1.5-1.2c0.4-0.2,0.9-0.3,1.3-0.3h20.7c0.9,0,1.7,0.3,2.4,1
			c0.6,0.7,1,1.5,1,2.4v2.5c0,0.9-0.3,1.7-1,2.4c-0.6,0.6-1.4,1-2.4,1h-5.1c-0.4,0-0.6-0.2-0.7-0.5c-0.1-0.4-0.3-0.7-0.6-0.9
			c-0.3-0.2-0.7-0.4-1.1-0.4h-4.4c-0.5,0-0.9,0.2-1.3,0.5c-0.4,0.4-0.5,0.8-0.5,1.3v4.3c0,0.5,0.2,1,0.5,1.3
			c0.4,0.4,0.8,0.5,1.3,0.5h4.6c0.3,0,0.5-0.1,0.5-0.4c0-0.2-0.2-0.4-0.6-0.4h-1.6c-0.4,0-0.6-0.2-0.6-0.6c0-0.4,0.2-0.7,0.6-0.7
			h3.2h1.3H157.7z"/>
		<path class="st0" d="M193.1,16.1c1,0,1.8,0.3,2.4,1c0.7,0.7,1,1.5,1,2.4v12.4c0,1-0.3,1.8-1,2.4c-0.7,0.7-1.5,1-2.4,1h-4.4
			c-0.9,0-1.6-0.3-2.2-0.9c-0.6-0.6-0.9-1.4-0.9-2.2v-4.9c0-0.2-0.1-0.4-0.2-0.5c-0.2-0.1-0.3-0.2-0.6-0.2c-0.5,0-0.7,0.2-0.7,0.7
			v4.9c0,0.9-0.3,1.6-0.9,2.2c-0.6,0.6-1.4,0.9-2.2,0.9h-14.5c-0.9,0-1.7-0.3-2.4-1c-0.7-0.7-1-1.5-1-2.4V19.5c0-1,0.3-1.8,1-2.4
			c0.7-0.7,1.5-1,2.4-1c0.2,0,0.5-0.1,0.6-0.2c0.2-0.2,0.3-0.4,0.3-0.6l1.1-9.2c0.1-1,0.5-1.8,1.3-2.4c0.8-0.7,1.7-1,2.6-1h7.4h7.3
			c1,0,1.8,0.3,2.6,1c0.8,0.7,1.2,1.5,1.3,2.4l1.1,9.2c0,0.2,0.1,0.4,0.3,0.6C192.6,16,192.8,16.1,193.1,16.1z M185.6,9.9
			c0-0.2-0.1-0.4-0.2-0.5c-0.2-0.1-0.3-0.2-0.6-0.2c-0.5,0-0.7,0.2-0.7,0.7v5.4c0,0.5,0.2,0.7,0.7,0.7c0.2,0,0.4-0.1,0.6-0.2
			c0.2-0.1,0.2-0.3,0.2-0.5V9.9z"/>
		<path class="st0" d="M218,2.6c1,0,1.9,0.4,2.6,1.1c0.7,0.7,1.1,1.6,1.1,2.7v6c0,0.3-0.1,0.5-0.3,0.7c-0.2,0.2-0.4,0.3-0.6,0.3
			h-3.7c-0.2,0-0.5-0.1-0.7-0.3c-0.2-0.2-0.3-0.4-0.3-0.7c0-0.2-0.1-0.5-0.3-0.6c-0.2-0.2-0.4-0.3-0.6-0.3h-0.3
			c-0.2,0-0.5,0.1-0.7,0.3c-0.2,0.2-0.3,0.4-0.3,0.6v2.2c0,0.4,0.1,0.7,0.3,1c0.2,0.3,0.5,0.6,0.8,0.7c0.6,0.2,1.1,0.7,1.5,1.2
			c0.4,0.6,0.6,1.2,0.6,1.9v12.5c0,1-0.3,1.8-1,2.4c-0.7,0.7-1.5,1-2.5,1h-11.6c-1,0-1.8-0.3-2.5-1c-0.7-0.7-1-1.5-1-2.4V19.4
			c0-0.7,0.2-1.4,0.6-1.9c0.4-0.6,0.9-1,1.5-1.2c0.3-0.2,0.6-0.4,0.8-0.7c0.2-0.3,0.3-0.7,0.3-1v-2.2c0-0.2-0.1-0.5-0.3-0.6
			c-0.2-0.2-0.4-0.3-0.6-0.3h-0.3c-0.2,0-0.5,0.1-0.6,0.3c-0.2,0.2-0.3,0.4-0.3,0.6c0,0.3-0.1,0.5-0.3,0.7c-0.2,0.2-0.4,0.3-0.7,0.3
			h-3.6c-0.3,0-0.5-0.1-0.7-0.3c-0.2-0.2-0.3-0.4-0.3-0.7v-6c0-1,0.4-1.9,1.1-2.7c0.7-0.7,1.6-1.1,2.6-1.1H218z"/>
		<path class="st0" d="M240.2,16.2c0.6,0.2,1.1,0.7,1.5,1.2c0.4,0.6,0.6,1.2,0.6,1.9v12.5c0,1-0.3,1.8-1,2.4c-0.7,0.7-1.5,1-2.5,1
			h-15.2c-1,0-1.8-0.3-2.4-1c-0.7-0.7-1-1.5-1-2.4V19.4c0-0.7,0.2-1.4,0.6-1.9c0.4-0.6,0.9-1,1.5-1.2c0.4-0.2,0.7-0.4,0.9-0.7
			c0.2-0.3,0.3-0.7,0.3-1V6c0-1,0.3-1.8,1-2.4c0.7-0.7,1.5-1,2.4-1h8.8c1,0,1.8,0.3,2.4,1c0.7,0.7,1,1.5,1,2.4v8.5
			c0,0.4,0.1,0.7,0.3,1C239.6,15.9,239.9,16.1,240.2,16.2z"/>
		<path class="st0" d="M274.3,16.1c1,0,1.8,0.3,2.4,1c0.7,0.7,1,1.5,1,2.4v12.4c0,1-0.3,1.8-1,2.4c-0.7,0.7-1.5,1-2.4,1h-26.6
			c-0.9,0-1.7-0.3-2.4-1c-0.7-0.7-1-1.5-1-2.4V19.5c0-1,0.3-1.8,1-2.4c0.7-0.7,1.5-1,2.4-1c0.2,0,0.5-0.1,0.6-0.2
			c0.2-0.2,0.3-0.4,0.3-0.6l1.1-9.2c0.1-1,0.5-1.8,1.3-2.4c0.8-0.7,1.7-1,2.6-1h7.4h7.3c1,0,1.8,0.3,2.6,1c0.8,0.7,1.2,1.5,1.3,2.4
			l1.1,9.2c0,0.2,0.1,0.4,0.3,0.6C273.9,16,274.1,16.1,274.3,16.1z M261.7,10.1c0-0.2-0.1-0.4-0.2-0.6c-0.1-0.2-0.3-0.2-0.5-0.2
			c-0.2,0-0.4,0.1-0.6,0.2c-0.2,0.2-0.2,0.3-0.2,0.6v5.4c0,0.2,0.1,0.4,0.2,0.5c0.2,0.1,0.3,0.2,0.6,0.2c0.5,0,0.7-0.2,0.7-0.7V10.1
			z"/>
		<path class="st0" d="M311.9,16.2c0.6,0.2,1.1,0.7,1.5,1.2c0.4,0.6,0.6,1.2,0.6,1.9v12.5c0,1-0.3,1.8-1,2.4c-0.7,0.7-1.5,1-2.4,1
			h-8c-1,0-1.8-0.3-2.4-1c-0.7-0.7-1-1.5-1-2.4v-7.2v-5.3v-2.7c0-0.7-0.3-1.4-0.8-2l-0.7-0.7v0l-2.6-2.6c-0.4-0.3-0.7-0.3-1.1,0
			c-0.4,0.4-0.4,0.7,0,1.1l2.8,2.9c0.6,0.5,0.8,1.2,0.8,2v2.1v5.3v7.2c0,1-0.3,1.8-1,2.4c-0.7,0.7-1.5,1-2.4,1H283
			c-1,0-1.8-0.3-2.4-1c-0.7-0.7-1-1.5-1-2.4V19.4c0-0.7,0.2-1.4,0.6-1.9c0.4-0.6,0.9-1,1.5-1.2c0.4-0.2,0.7-0.4,0.9-0.7
			c0.2-0.3,0.3-0.7,0.3-1V6c0-1,0.3-1.8,1-2.4c0.7-0.7,1.5-1,2.4-1h3.1c1.1,0,2.2,0.2,3.2,0.7c1,0.4,1.9,1,2.6,1.7l3.4,3.1
			c0.1,0.1,0.3,0.1,0.4,0.1c0.2-0.1,0.2-0.2,0.2-0.3V5.8c0-0.9,0.3-1.7,1-2.3c0.6-0.6,1.4-1,2.3-1h5c1,0,1.8,0.3,2.4,1
			c0.7,0.7,1,1.5,1,2.4v8.5c0,0.4,0.1,0.7,0.3,1C311.3,15.9,311.6,16.1,311.9,16.2z"/>
	</g>
	<g>
		<path class="st0" d="M24.6,38.7c2,0,3.8,0.4,5.5,1.3c1.7,0.9,3.1,2,4.2,3.4c1.1,1.4,1.9,3.1,2.4,5c0.4,1.9,0.4,3.9-0.1,5.9
			c-0.3,1.3-0.9,2.6-1.7,3.7c-0.8,1.1-1.7,2.1-2.7,2.9c-1,0.8-2.2,1.4-3.5,1.9s-2.6,0.7-4,0.7c-0.1,0-0.1,0.1-0.1,0.2V68
			c0,1-0.3,1.8-1,2.4c-0.7,0.7-1.5,1-2.5,1H8.2c-1,0-1.8-0.3-2.4-1c-0.7-0.7-1-1.5-1-2.4V55.5c0-0.7,0.2-1.4,0.6-1.9
			c0.4-0.6,0.9-1,1.5-1.2c0.4-0.2,0.7-0.4,0.9-0.7c0.2-0.3,0.3-0.7,0.3-1v-8.5c0-1,0.3-1.8,1-2.4c0.7-0.7,1.5-1,2.4-1H24.6z
			 M25.9,45.7c0-0.5-0.2-0.7-0.7-0.7c-0.5,0-0.7,0.2-0.7,0.7v5.5c0,0.5,0.2,0.7,0.7,0.7c0.5,0,0.7-0.2,0.7-0.7V45.7z"/>
		<path class="st0" d="M63.4,52.3c0.6,0.2,1.1,0.7,1.5,1.2c0.4,0.6,0.6,1.2,0.6,1.9V68c0,1-0.3,1.8-1,2.4c-0.7,0.7-1.5,1-2.4,1H41.7
			c-1,0-1.8-0.3-2.4-1c-0.7-0.7-1-1.5-1-2.4V55.5c0-0.7,0.2-1.4,0.6-1.9c0.4-0.6,0.9-1,1.5-1.2c0.4-0.2,0.7-0.4,0.9-0.7
			c0.2-0.3,0.3-0.7,0.3-1v-8.5c0-1,0.3-1.8,1-2.4c0.7-0.7,1.5-1,2.4-1h4.3c0.5,0,1,0.2,1.3,0.6c0.4,0.4,0.6,0.8,0.6,1.4v8.5
			c0,0.2-0.1,0.5-0.3,0.6c-0.2,0.2-0.4,0.3-0.6,0.3h-1c-0.2,0-0.4,0.1-0.6,0.2c-0.2,0.1-0.2,0.3-0.2,0.5c0,0.2,0.1,0.4,0.2,0.5
			c0.2,0.1,0.3,0.2,0.6,0.2h5.4c0.2,0,0.4-0.1,0.6-0.2c0.2-0.1,0.2-0.3,0.2-0.5c0-0.2-0.1-0.4-0.2-0.5c-0.2-0.1-0.3-0.2-0.6-0.2h-1
			c-0.2,0-0.5-0.1-0.6-0.3c-0.2-0.2-0.3-0.4-0.3-0.6v-8.5c0-0.5,0.2-1,0.6-1.4c0.4-0.4,0.8-0.6,1.3-0.6h4.3c0.9,0,1.7,0.3,2.4,1
			c0.7,0.7,1,1.5,1,2.4v8.5c0,0.4,0.1,0.7,0.3,1C62.8,51.9,63.1,52.2,63.4,52.3z"/>
		<path class="st0" d="M70.1,52.2L70.1,52.2c0.1,0,0.1,0,0.1,0L81.6,50c0.6-0.1,1.3-0.2,2.1-0.2h1.8c0.2,0,0.4-0.1,0.5-0.2
			c0.1-0.2,0.2-0.3,0.2-0.6c0-0.5-0.2-0.7-0.7-0.7H80h-5.3c-0.6,0-1.2-0.2-1.6-0.7c-0.4-0.4-0.7-1-0.7-1.6v-3.3
			c0-0.6,0.1-1.1,0.3-1.6c0.2-0.5,0.5-0.9,0.9-1.3c0.4-0.4,0.8-0.6,1.3-0.9c0.5-0.2,1-0.3,1.6-0.3h12.7c0.6,0,1.1,0.1,1.6,0.3
			c0.5,0.2,0.9,0.5,1.3,0.9c0.4,0.4,0.6,0.8,0.8,1.3c0.2,0.5,0.3,1,0.3,1.6v2.9v2.7c0,0.6-0.2,1.2-0.7,1.6c-0.4,0.4-1,0.7-1.6,0.7
			h-1.1h-1.4c-0.2,0-0.4,0.1-0.6,0.2c-0.2,0.2-0.2,0.3-0.2,0.6c0,0.2,0.1,0.4,0.2,0.5c0.2,0.1,0.3,0.2,0.6,0.2h1.4h5.1
			c1,0,1.8,0.3,2.4,1c0.7,0.7,1,1.5,1,2.4V68c0,1-0.3,1.8-1,2.4c-0.7,0.7-1.5,1-2.4,1H70.9c-1,0-1.8-0.3-2.4-1c-0.7-0.7-1-1.5-1-2.4
			V55.5c0-0.8,0.2-1.5,0.7-2.1C68.7,52.7,69.3,52.3,70.1,52.2z"/>
		<path class="st0" d="M102.7,52.2L102.7,52.2c0.1,0,0.1,0,0.1,0l11.4-2.1c0.6-0.1,1.3-0.2,2.1-0.2h1.8c0.2,0,0.4-0.1,0.5-0.2
			c0.1-0.2,0.2-0.3,0.2-0.6c0-0.5-0.2-0.7-0.7-0.7h-5.5h-5.3c-0.6,0-1.2-0.2-1.6-0.7c-0.4-0.4-0.7-1-0.7-1.6v-3.3
			c0-0.6,0.1-1.1,0.3-1.6c0.2-0.5,0.5-0.9,0.9-1.3c0.4-0.4,0.8-0.6,1.3-0.9c0.5-0.2,1-0.3,1.6-0.3h12.7c0.6,0,1.1,0.1,1.6,0.3
			c0.5,0.2,0.9,0.5,1.3,0.9c0.4,0.4,0.6,0.8,0.8,1.3s0.3,1,0.3,1.6v2.9v2.7c0,0.6-0.2,1.2-0.7,1.6c-0.4,0.4-1,0.7-1.6,0.7h-1.1h-1.4
			c-0.2,0-0.4,0.1-0.6,0.2c-0.2,0.2-0.2,0.3-0.2,0.6c0,0.2,0.1,0.4,0.2,0.5c0.2,0.1,0.3,0.2,0.6,0.2h1.4h5.1c1,0,1.8,0.3,2.4,1
			c0.7,0.7,1,1.5,1,2.4V68c0,1-0.3,1.8-1,2.4c-0.7,0.7-1.5,1-2.4,1h-23.9c-1,0-1.8-0.3-2.4-1c-0.7-0.7-1-1.5-1-2.4V55.5
			c0-0.8,0.2-1.5,0.7-2.1C101.3,52.7,101.9,52.3,102.7,52.2z"/>
		<path class="st0" d="M153.3,52.1c1,0,1.8,0.3,2.5,1c0.7,0.7,1,1.5,1,2.4V68c0,1-0.3,1.8-1,2.4c-0.7,0.7-1.5,1-2.5,1h-17.2
			c-1,0-1.8-0.3-2.4-1c-0.7-0.7-1-1.5-1-2.4V55.5c0-0.7,0.2-1.4,0.6-1.9c0.4-0.6,0.9-1,1.5-1.2c0.4-0.2,0.7-0.4,0.9-0.7
			c0.2-0.3,0.3-0.7,0.3-1v-8.5c0-1,0.3-1.8,1-2.4c0.7-0.7,1.5-1,2.4-1h6.3c0.9,0,1.7,0.3,2.3,0.9c0.6,0.6,0.9,1.4,0.9,2.3v10.2v2.1
			c0,0.6,0.2,1.1,0.6,1.5c0.4,0.4,1,0.6,1.6,0.5c0.5-0.1,1-0.3,1.3-0.7c0.3-0.4,0.5-0.9,0.5-1.4v-1.5c0-0.2,0.1-0.3,0.2-0.4
			C153.1,52.1,153.2,52.1,153.3,52.1z"/>
		<path class="st0" d="M185.3,52c1,0,1.8,0.3,2.4,1s1,1.5,1,2.5v12.4c0,1-0.3,1.8-1,2.4c-0.7,0.7-1.5,1-2.4,1l-23.2,0
			c-1,0-1.8-0.3-2.4-1c-0.7-0.7-1-1.5-1-2.4V55.5c0-0.7,0.2-1.4,0.6-1.9c0.4-0.6,0.9-1,1.5-1.2c0.4-0.2,0.7-0.4,0.9-0.7
			c0.2-0.3,0.3-0.7,0.3-1v-8.5c0-1,0.3-1.8,1-2.4c0.7-0.7,1.5-1,2.4-1h0.8h6.2h1.2h2.8h5.8c0.9,0,1.7,0.3,2.4,1c0.7,0.7,1,1.5,1,2.4
			v0.8v1.3v0.6c0,0.4-0.2,0.6-0.6,0.6h-3.9c-0.4,0-0.7-0.2-0.7-0.6s-0.2-0.6-0.6-0.6h-2.7c-0.4,0-0.6,0.2-0.6,0.6V46
			c0,0.2,0.1,0.3,0.2,0.4c0.1,0.1,0.3,0.2,0.5,0.2h1.5c0.3,0,0.6,0.1,0.9,0.3c0.2,0.2,0.3,0.5,0.3,0.9v1.3c0,0.3-0.1,0.6-0.3,0.9
			c-0.2,0.2-0.5,0.4-0.9,0.4h-1.5c-0.4,0-0.6,0.2-0.6,0.7v0.3c0,0.4,0.2,0.6,0.6,0.6H185.3z"/>
	</g>
	<g>
		<path class="st1" d="M207.4,55.9c0.5,0.2,0.9,0.5,1.2,1c0.3,0.5,0.5,1,0.5,1.6v10.1c0,0.8-0.3,1.4-0.8,2c-0.6,0.5-1.2,0.8-2,0.8
			h-12.3c-0.8,0-1.4-0.3-2-0.8c-0.5-0.5-0.8-1.2-0.8-2V58.5c0-0.6,0.2-1.1,0.5-1.6c0.3-0.5,0.7-0.8,1.2-1c0.3-0.1,0.5-0.3,0.7-0.6
			c0.2-0.3,0.2-0.5,0.2-0.8v-6.9c0-0.8,0.3-1.4,0.8-2c0.5-0.5,1.2-0.8,1.9-0.8h7.1c0.8,0,1.4,0.3,2,0.8c0.5,0.5,0.8,1.2,0.8,2v6.9
			c0,0.3,0.1,0.6,0.2,0.8C206.9,55.6,207.1,55.8,207.4,55.9z"/>
	</g>
	<g>
		<path class="st2" d="M210.3,54.1c-0.5-0.2-0.9-0.5-1.2-1c-0.3-0.5-0.5-1-0.5-1.6V41.3c0-0.8,0.3-1.4,0.8-2c0.6-0.5,1.2-0.8,2-0.8
			h12.3c0.8,0,1.4,0.3,2,0.8c0.5,0.5,0.8,1.2,0.8,2v10.1c0,0.6-0.2,1.1-0.5,1.6c-0.3,0.5-0.7,0.8-1.2,1c-0.3,0.1-0.5,0.3-0.7,0.6
			c-0.2,0.3-0.2,0.5-0.2,0.8v6.9c0,0.8-0.3,1.4-0.8,2c-0.5,0.5-1.2,0.8-1.9,0.8H214c-0.8,0-1.4-0.3-2-0.8c-0.5-0.5-0.8-1.2-0.8-2
			v-6.9c0-0.3-0.1-0.6-0.2-0.8C210.8,54.4,210.6,54.2,210.3,54.1z"/>
	</g>
	<g>
		<g>
			<path class="st3" d="M242.3,55.9c0.5,0.2,0.9,0.5,1.2,1c0.3,0.5,0.5,1,0.5,1.6v10.1c0,0.8-0.3,1.4-0.8,2c-0.6,0.5-1.2,0.8-2,0.8
				h-12.3c-0.8,0-1.4-0.3-2-0.8c-0.5-0.5-0.8-1.2-0.8-2V58.5c0-0.6,0.2-1.1,0.5-1.6c0.3-0.5,0.7-0.8,1.2-1c0.3-0.1,0.5-0.3,0.7-0.6
				c0.2-0.3,0.2-0.5,0.2-0.8v-6.9c0-0.8,0.3-1.4,0.8-2c0.5-0.5,1.2-0.8,1.9-0.8h7.1c0.8,0,1.4,0.3,2,0.8c0.5,0.5,0.8,1.2,0.8,2v6.9
				c0,0.3,0.1,0.6,0.2,0.8C241.8,55.6,242,55.8,242.3,55.9z"/>
		</g>
	</g>
	<g>
		<g>
			<path class="st4" d="M245.3,54.1c-0.5-0.2-0.9-0.5-1.2-1s-0.5-1-0.5-1.6V41.3c0-0.8,0.3-1.4,0.8-2c0.6-0.5,1.2-0.8,2-0.8h12.3
				c0.8,0,1.4,0.3,2,0.8c0.5,0.5,0.8,1.2,0.8,2v10.1c0,0.6-0.2,1.1-0.5,1.6c-0.3,0.5-0.7,0.8-1.2,1c-0.3,0.1-0.5,0.3-0.7,0.6
				c-0.2,0.3-0.2,0.5-0.2,0.8v6.9c0,0.8-0.3,1.4-0.8,2c-0.5,0.5-1.2,0.8-1.9,0.8H249c-0.8,0-1.4-0.3-2-0.8c-0.5-0.5-0.8-1.2-0.8-2
				v-6.9c0-0.3-0.1-0.6-0.2-0.8C245.8,54.4,245.5,54.2,245.3,54.1z"/>
		</g>
	</g>
	<g>
		<g>
			<path class="st5" d="M277.3,55.9c0.5,0.2,0.9,0.5,1.2,1c0.3,0.5,0.5,1,0.5,1.6v10.1c0,0.8-0.3,1.4-0.8,2c-0.6,0.5-1.2,0.8-2,0.8
				h-12.3c-0.8,0-1.4-0.3-2-0.8c-0.5-0.5-0.8-1.2-0.8-2V58.5c0-0.6,0.2-1.1,0.5-1.6c0.3-0.5,0.7-0.8,1.2-1c0.3-0.1,0.5-0.3,0.7-0.6
				c0.2-0.3,0.2-0.5,0.2-0.8v-6.9c0-0.8,0.3-1.4,0.8-2s1.2-0.8,1.9-0.8h7.1c0.8,0,1.4,0.3,2,0.8c0.5,0.5,0.8,1.2,0.8,2v6.9
				c0,0.3,0.1,0.6,0.2,0.8C276.8,55.6,277,55.8,277.3,55.9z"/>
		</g>
	</g>
	<g>
		<g>
			<path class="st6" d="M280.2,54.1c-0.5-0.2-0.9-0.5-1.2-1s-0.5-1-0.5-1.6V41.3c0-0.8,0.3-1.4,0.8-2c0.6-0.5,1.2-0.8,2-0.8h12.3
				c0.8,0,1.4,0.3,2,0.8c0.5,0.5,0.8,1.2,0.8,2v10.1c0,0.6-0.2,1.1-0.5,1.6c-0.3,0.5-0.7,0.8-1.2,1c-0.3,0.1-0.5,0.3-0.7,0.6
				c-0.2,0.3-0.2,0.5-0.2,0.8v6.9c0,0.8-0.3,1.4-0.8,2c-0.5,0.5-1.2,0.8-1.9,0.8h-7.1c-0.8,0-1.4-0.3-2-0.8c-0.5-0.5-0.8-1.2-0.8-2
				v-6.9c0-0.3-0.1-0.6-0.2-0.8C280.7,54.4,280.5,54.2,280.2,54.1z"/>
		</g>
	</g>
	<g>
		<g>
			<path class="st0" d="M312.2,55.9c0.5,0.2,0.9,0.5,1.2,1c0.3,0.5,0.5,1,0.5,1.6v10.1c0,0.8-0.3,1.4-0.8,2c-0.6,0.5-1.2,0.8-2,0.8
				h-12.3c-0.8,0-1.4-0.3-2-0.8c-0.5-0.5-0.8-1.2-0.8-2V58.5c0-0.6,0.2-1.1,0.5-1.6c0.3-0.5,0.7-0.8,1.2-1c0.3-0.1,0.5-0.3,0.7-0.6
				c0.2-0.3,0.2-0.5,0.2-0.8v-6.9c0-0.8,0.3-1.4,0.8-2s1.2-0.8,1.9-0.8h7.1c0.8,0,1.4,0.3,2,0.8c0.5,0.5,0.8,1.2,0.8,2v6.9
				c0,0.3,0.1,0.6,0.2,0.8C311.7,55.6,312,55.8,312.2,55.9z"/>
		</g>
	</g>
</g>
<g>
	<defs>
		<rect id="SVGID_1_" x="82.4" y="125.2" width="40.3" height="40.3"/>
	</defs>
	<clipPath id="SVGID_00000101825126514189592690000015550480232507243191_">
		<use xlink:href="#SVGID_1_"  style="overflow:visible;"/>
	</clipPath>
	<g style="clip-path:url(#SVGID_00000101825126514189592690000015550480232507243191_);">
		<path class="st8" d="M122.8,125.2H82.5v40.3h40.3V125.2z"/>
		<path class="st4" d="M120.2,155.3h-0.3c-1,0-2-0.5-2.4-1.4c-0.1-0.3,0.3-0.5,0.3-0.8c0,0-0.5-0.7-0.6-1c-0.1-0.4-0.1-0.8-0.1-1.1
			c0.1-0.3,0.2-0.5,0.4-0.8c-0.1-0.2-0.2-0.4-0.3-0.6c-0.1-0.5-0.1-1-0.1-1.5c0-0.4,0-1.5-0.1-1.9c0-0.4,1.3-1.7,1.6-2
			c0.3-0.3,0.5-0.9,0.9-1c0.1,0,0.5-0.5,0.9-0.4c1.3,0.3,2.2,1.5,2.2,2.8v7.1c0,0.7-0.3,1.3-0.7,1.8
			C121.5,155,120.9,155.3,120.2,155.3z"/>
		<path class="st3" d="M92.2,125.2c3.6,0,7.1,1.2,8.6,3.8c0.4,0.7,1.6,2.3,1.5,3.2c-0.2,1.7-2.3,1.2-2.3,4.3c0,3.1,2,2.6,1.8,4.4
			c0,0.5-0.5,0.7-0.7,1c-0.3,0.4-1.1,0.2-1.5,0.5c-0.4,0.3-0.5,1-1,1.2c-0.4,0.2,0,0.1-0.4,0.2c-1.6,0.5-2.9-1.1-4.7-1.1
			c-0.6,0-3.4,1.2-5,0.9c-1.3-0.2-1.5-0.4-1.9-0.6c-1.7-1.2-3-2.9-3.7-4.8c-0.7-2-0.7-4.1-0.1-6.1c0.6-2,1.8-3.7,3.5-5
			C88.1,125.8,90.1,125.2,92.2,125.2z"/>
		<path class="st9" d="M114.1,125.2h-6.2v3.6l-2.5-2.5l-4.4,4.4l2.5,2.5H100v6.2h3.7l-2.6,2.6l4.4,4.4l2.5-2.5v2.1
			c0,0,0.8,0.3,1.3,0.2c0.7-0.1,1-0.9,1.4-0.9c0.4,0,1,0.7,1.3,0.8c0.4,0.1,1.4,0,1.4,0l0.6,0.3l0.3-2.6l2.6,2.6l4.4-4.4l-2.6-2.6
			h4.2v-6.2h-4.1l2.5-2.5l-4.4-4.4l-2.6,2.6V125.2z"/>
		<path class="st4" d="M93.6,142.4l5.6,1.5l4.1,4.1c0.1,1.2,0.3,2.4,0.6,3.6c0.2,0.9-0.6,1-0.6,1.5c0,0.3,0.7,0.7,0.9,1.3
			c0.1,0.5,0.3,0.8,0.3,1.1c-0.4,1.7-1.2,3.7-1.2,3.7l-4.1,4.1l-5.6,1.5l-5.6-1.5l-4.1-4.1l-1.5-5.6l1.5-5.6l4.1-4.1L93.6,142.4z"/>
		<path class="st5" d="M102.6,165.4c0,0,7.2-1.4,11.1-2.7c1.4-0.4,2.9-1,4.1-1.5c0.4-0.2,0.6-0.7,0.9-0.8c0.1-0.1,0.4,0.2,0.5,0.1
			c0.1-0.1,0.1-0.4,0.2-0.5c0.3-0.2,0.7-0.1,0.9-0.2c0.4-0.2,0.8-0.5,1.1-0.8c1-0.9,1.5-1.8,1.1-2.8c-0.1-0.3-0.2-0.5-0.4-0.7
			c-0.2-0.2-0.4-0.4-0.7-0.5c-0.3-0.1-0.5-0.2-0.8-0.2c-0.3,0-0.5,0.1-0.8,0.2c-1.1,0.5-2.9,0.8-4.4,1.8c-0.3,0.2-0.3,1.1-0.7,1.4
			c-0.4,0.3-1.3-0.3-1.7-0.1c-0.5,0.2-0.7,1.1-1.1,1.3c-0.5,0.2-0.8-0.4-1.5-0.3c-2,0.5-8.2,1.8-9.6,2.3c-0.3,0.1-0.5,0.2-0.7,0.4
			c-0.2,0.2-0.3,0.4-0.5,0.7c-0.1,0.3-0.2,0.5-0.2,0.8c0,0.3,0.1,0.5,0.2,0.8C100.2,165.2,101.5,165.5,102.6,165.4z"/>
		<path class="st10" d="M105.2,147.6c-0.2,0.2,0,1-0.3,1.4c-0.2,0.4-0.6,0.1-0.9-0.3l-4.5-4.5c-0.1-0.1-0.2-0.3-0.3-0.4
			c-0.1-0.2-0.1-0.3-0.1-0.5c0-0.2,0-0.4,0.1-0.5c0.1-0.2,0.2-0.3,0.3-0.4c0.3-0.3,0.6-0.4,1-0.4c0.4,0,0.7,0.1,1,0.4l4,4
			c0.3,0.3,0.9,0.8,0.5,0.8C105.4,147.1,105.4,147.4,105.2,147.6z"/>
		<path class="st2" d="M110.2,145.1c0,0,0.1-0.1,0.1-0.1c0.1,0,0.1,0,0.2,0s0.1,0,0.2,0c0.1,0,0.1,0.1,0.1,0.1l0.8,1
			c0.1,0.1,0.1,0.1,0.2,0.1c0.1,0,0.2,0,0.3,0l1.1-0.6c0.1,0,0.1,0,0.2,0c0.1,0,0.1,0,0.2,0s0.1,0.1,0.1,0.1c0,0,0.1,0.1,0.1,0.2
			l0.3,1.2c0,0.1,0.1,0.2,0.2,0.2c0.1,0.1,0.2,0.1,0.3,0.1l1.2-0.1c0.1,0,0.1,0,0.2,0c0.1,0,0.1,0.1,0.2,0.1c0,0,0.1,0.1,0.1,0.2
			c0,0.1,0,0.1,0,0.2L116,149c0,0.1,0,0.2,0,0.3s0.1,0.1,0.2,0.2l1.2,0.4c0.1,0,0.1,0.1,0.2,0.1s0.1,0.1,0.1,0.2c0,0.1,0,0.1,0,0.2
			s0,0.1-0.1,0.2l-0.7,1c-0.1,0.1-0.1,0.2-0.1,0.3c0,0.1,0.1,0.2,0.1,0.3l0.9,0.9c0,0,0.1,0.1,0.1,0.2c0,0.1,0,0.1,0,0.2
			c0,0.1,0,0.1-0.1,0.2c0,0.1-0.1,0.1-0.1,0.1l-1.1,0.7c-0.1,0.1-0.1,0.1-0.2,0.2c0,0.1,0,0.2,0,0.3l0.5,1.2c0,0.1,0,0.1,0,0.2
			c0,0.1,0,0.1-0.1,0.2c0,0.1-0.1,0.1-0.1,0.1c-0.1,0-0.1,0.1-0.2,0.1l-1.2,0.2c-0.1,0-0.2,0.1-0.2,0.1c-0.1,0.1-0.1,0.2-0.1,0.3
			l0,1.2c0,0.1,0,0.1,0,0.2c0,0.1-0.1,0.1-0.1,0.1c-0.1,0-0.1,0.1-0.2,0.1c-0.1,0-0.1,0-0.2,0l-1.2-0.3c-0.1,0-0.2,0-0.3,0
			c-0.1,0-0.2,0.1-0.2,0.2l-0.5,1.1c0,0.1-0.1,0.1-0.1,0.1c0,0-0.1,0.1-0.2,0.1c-0.1,0-0.1,0-0.2,0c-0.1,0-0.1,0-0.2-0.1l-0.9-0.8
			c-0.1-0.1-0.2-0.1-0.3-0.1c-0.1,0-0.2,0-0.3,0.1l-0.9,0.8c0,0-0.1,0.1-0.2,0.1c-0.1,0-0.1,0-0.2,0c-0.1,0-0.1,0-0.2-0.1
			c0,0-0.1-0.1-0.1-0.1l-0.5-1.1c0-0.1-0.1-0.2-0.2-0.2c-0.1,0-0.2,0-0.3,0l-1.2,0.3c-0.1,0-0.1,0-0.2,0c-0.1,0-0.1,0-0.2-0.1
			c-0.1,0-0.1-0.1-0.1-0.1s0-0.1,0-0.2l0-1.2c0-0.1,0-0.2-0.1-0.3c-0.1-0.1-0.2-0.1-0.2-0.1l-1.2-0.2c-0.1,0-0.1,0-0.2-0.1
			c-0.1,0-0.1-0.1-0.1-0.1c0-0.1,0-0.1-0.1-0.2c0-0.1,0-0.1,0-0.2l0.5-1.2c0-0.1,0-0.2,0-0.3s-0.1-0.2-0.2-0.2l-1.1-0.7
			c-0.1,0-0.1-0.1-0.1-0.1c0-0.1-0.1-0.1-0.1-0.2c0-0.1,0-0.1,0-0.2c0-0.1,0.1-0.1,0.1-0.2l0.9-0.9c0.1-0.1,0.1-0.2,0.1-0.3
			c0-0.1,0-0.2-0.1-0.3l-0.7-1c0-0.1-0.1-0.1-0.1-0.2s0-0.1,0-0.2c0-0.1,0.1-0.1,0.1-0.2c0,0,0.1-0.1,0.2-0.1l1.2-0.4
			c0.1,0,0.2-0.1,0.2-0.2c0-0.1,0.1-0.2,0-0.3l-0.2-1.2c0-0.1,0-0.1,0-0.2c0-0.1,0-0.1,0.1-0.2c0,0,0.1-0.1,0.2-0.1
			c0.1,0,0.1,0,0.2,0l1.2,0.1c0.1,0,0.2,0,0.3-0.1c0.1-0.1,0.1-0.1,0.2-0.2l0.3-1.2c0-0.1,0-0.1,0.1-0.2c0,0,0.1-0.1,0.1-0.1
			c0.1,0,0.1,0,0.2,0c0.1,0,0.1,0,0.2,0l1.1,0.6c0.1,0,0.2,0.1,0.3,0c0.1,0,0.2-0.1,0.2-0.1L110.2,145.1z"/>
		<path class="st2" d="M86.9,127.4c0,0.2-0.1,0.3-0.3,0.5c-0.3,0.1-0.5,0.3-0.8,0.5c-0.2,0.2-0.4,0.4-0.5,0.7
			c-0.2,0.3-0.3,0.5-0.6,0.5c-0.4,0-0.9-0.1-1.2-0.4c-0.4-0.2-0.6-0.6-0.8-1s-0.2-0.8-0.1-1.3c0.1-0.4,0.3-0.8,0.6-1.1
			s0.7-0.5,1.1-0.6c0.4-0.1,0.9,0,1.3,0.1c0.4,0.2,0.7,0.5,1,0.8S86.9,126.9,86.9,127.4z"/>
		<path class="st11" d="M120.8,159.9h-1.5v0.9l-0.6-0.6l-1.1,1.1l0.6,0.6h-0.9v1.5h0.9l-0.6,0.6l1.1,1.1l0.6-0.6v0.8h1.5v-0.9
			l0.6,0.6l1.1-1.1l-0.6-0.6h0.9v-1.5h-0.8l0.6-0.6l-1.1-1.1l-0.6,0.6V159.9z"/>
		<path class="st12" d="M86.9,127.6c-0.4,0.2-0.8,0.4-1.1,0.7c-0.4,0.4-0.7,0.9-0.9,1.5"/>
		<path class="st13" d="M102.1,132.6c0,0,0,0.2-0.3,0.4c-0.2,0.2-0.9,0.2-1.6,0.1c-0.4-0.1-0.8-0.3-1.2-0.6c0,0,0.7,0.5,0.9,1.1
			c0.2,0.6,0,1.4,0,1.4"/>
		<path class="st13" d="M109.6,145.8c0.3-0.2,0.5-0.5,0.7-0.8c0.3-0.5,0.4-0.8,0.4-0.8s0,0.6,0.2,0.9c0.2,0.2,0.4,0.4,0.6,0.6"/>
		<path class="st13" d="M89.9,143.4c0,0,3.2-0.8,3.7-1c0.6-0.2,0.6-0.4,0.6-0.4s-0.1,0.5,0.4,0.7c0.6,0.2,2.4,0.7,2.4,0.7"/>
		<path class="st13" d="M105.4,147.3c-0.3,0.1-0.6,0.1-0.8,0c-0.5-0.1,0.1,0.1,0.3,0.8c0.2,0.7,0.1,0.6,0.1,0.6"/>
		<path class="st13" d="M110.9,159.7c0.4,0.1,0.8,0.1,1.2,0.1c0.7-0.1,0.7-1,1.3-1.2c0.6-0.2,1.1,0.2,1.5,0c0.4-0.2,0.7-1.2,0.7-1.2
			"/>
		<path class="st13" d="M99.1,143.2c0-0.2,0.1-0.4,0.1-0.6c0.1-0.2,0.2-0.3,0.4-0.4c0.1-0.1,0.3-0.2,0.5-0.2c0.2,0,0.4-0.1,0.5,0"/>
		<path class="st13" d="M118.1,160.8c0,0,0.6-0.6,0.6-0.9c0-0.4,0,0.4,0.2,0.5"/>
	</g>
</g>
</svg>
