<?xml version="1.0" encoding="utf-8"?>
<!-- Generator: Adobe Illustrator 26.0.1, SVG Export Plug-In . SVG Version: 6.00 Build 0)  -->
<svg version="1.1" id="Слой_1" xmlns="http://www.w3.org/2000/svg" xmlns:xlink="http://www.w3.org/1999/xlink" x="0px" y="0px"
	 viewBox="0 0 1173.1 288" style="enable-background:new 0 0 1173.1 288;" xml:space="preserve">
<style type="text/css">
	.st0{fill:#F4E6F2;}
	.st1{fill:#E95251;}
	.st2{fill:#F0883C;}
	.st3{fill:#FFE509;}
	.st4{fill:#5DB46C;}
	.st5{fill:#5CA7DC;}
	.st6{fill:#B6AED6;}
</style>
<g>
	<g>
		<path class="st0" d="M72.4,22.2c7.4,0,14.7,1.5,21,4.4c6.6,2.9,12.5,6.6,17.3,11.8c4.8,4.8,8.8,10.7,11.8,17.3
			c2.9,6.6,4.4,13.6,4.4,21v17.7c0,6.6-1.1,12.9-3.7,18.8s-5.9,11-10.3,15.5c-4.4,4.4-9.6,7.7-15.5,10.3c-5.9,2.6-12.1,3.7-18.8,3.7
			H26c-3.7,0-6.6-1.1-8.8-3.7c-2.6-2.6-3.7-5.5-3.7-8.8V84c0-2.6,0.7-4.8,2.2-7c1.5-1.8,2.9-3.7,5.2-4.4c1.5-0.7,2.6-1.5,3.3-2.6
			c0.4-1.5,0.7-2.9,0.7-4.4V56V34.7c0-2.6,0.7-4.8,2.2-7s3.3-3.7,5.5-4.4c1.5-0.7,3.3-1.1,4.8-1.1H72.4z M83.4,48.7
			c0-0.7-0.4-1.5-0.7-1.8c-0.7-0.7-1.5-1.1-2.2-1.1c-1.8,0-2.6,0.7-2.6,2.6v20.2c0,1.8,0.7,2.6,2.6,2.6c0.7,0,1.5-0.4,2.2-0.7
			c0.7-0.4,0.7-1.1,0.7-1.8V48.7z"/>
		<path class="st0" d="M231.7,71.1c3.7,0,6.6,1.1,8.8,3.7c2.6,2.6,3.7,5.5,3.7,9.2v45.6c0,3.7-1.1,6.6-3.7,8.8
			c-2.6,2.6-5.5,3.7-8.8,3.7h-85.4c-3.7,0-6.6-1.1-8.8-3.7c-2.6-2.6-3.7-5.5-3.7-8.8V84c0-2.6,0.7-5.2,2.2-7
			c1.5-2.2,3.3-3.7,5.5-4.4c1.5-0.7,2.6-1.5,3.3-2.6c0.7-1.1,1.1-2.6,1.1-3.7V34.7c0-3.7,1.1-6.6,3.7-8.8c2.6-2.6,5.5-3.7,8.8-3.7
			h2.9h22.8h4.4H199h21c3.3,0,6.3,1.1,8.8,3.7c2.6,2.6,3.7,5.5,3.7,8.8v2.9v4.8V45c0,1.5-0.7,2.2-2.2,2.2h-14.4
			c-1.5,0-2.2-0.7-2.2-2.2c0-1.5-0.7-2.6-2.2-2.6h-9.9c-1.5,0-2.2,0.7-2.2,2.6v4.4c0,0.7,0.4,1.1,0.7,1.5s1.1,0.7,1.8,0.7h5.5
			c1.1,0,2.2,0.4,3.3,1.1c0.7,0.7,1.1,1.8,1.1,3.3v4.8c0,1.1-0.4,2.2-1.1,3.3c-0.7,0.7-1.8,1.5-3.3,1.5h-5.5c-1.5,0-2.2,0.7-2.2,2.2
			v1.1c0,1.5,0.7,2.2,2.2,2.2H231.7z"/>
		<path class="st0" d="M327.4,71.5c3.7,0,6.6,1.1,9.2,3.7s3.7,5.5,3.7,8.8v46c0,3.7-1.1,6.6-3.7,8.8c-2.6,2.6-5.5,3.7-9.2,3.7h-63.7
			c-3.7,0-6.6-1.1-8.8-3.7c-2.6-2.6-3.7-5.5-3.7-8.8V84c0-2.6,0.7-5.2,2.2-7c1.5-2.2,3.3-3.7,5.5-4.4c1.5-0.7,2.6-1.5,3.3-2.6
			c0.7-1.1,1.1-2.6,1.1-3.7V34.7c0-3.7,1.1-6.6,3.7-8.8c2.6-2.6,5.5-3.7,8.8-3.7H299c3.3,0,6.3,1.1,8.5,3.7c2.2,2.2,3.3,5.2,3.3,8.5
			v37.2v7.7c0,2.2,0.7,4,2.2,5.5c1.5,1.5,3.7,2.2,5.9,1.8c1.8-0.4,3.7-1.1,4.8-2.6c1.1-1.5,1.8-3.3,1.8-5.2v-5.5
			c0-0.7,0.4-1.1,0.7-1.5C326.3,71.5,326.6,71.5,327.4,71.5z"/>
		<path class="st0" d="M445.1,71.1c3.7,0,6.6,1.1,8.8,3.7c2.6,2.6,3.7,5.5,3.7,9.2v45.6c0,3.7-1.1,6.6-3.7,8.8
			c-2.6,2.6-5.5,3.7-8.8,3.7h-85.4c-3.7,0-6.6-1.1-8.8-3.7c-2.6-2.6-3.7-5.5-3.7-8.8V84c0-2.6,0.7-5.2,2.2-7
			c1.5-2.2,3.3-3.7,5.5-4.4c1.5-0.7,2.6-1.5,3.3-2.6c0.7-1.1,1.1-2.6,1.1-3.7V34.7c0-3.7,1.1-6.6,3.7-8.8c2.6-2.6,5.5-3.7,8.8-3.7
			h2.9h22.8h4.4h10.3h21.3c3.3,0,6.3,1.1,8.8,3.7c2.6,2.6,3.7,5.5,3.7,8.8v2.9v4.8V45c0,1.5-0.7,2.2-2.2,2.2h-14.4
			c-1.5,0-2.2-0.7-2.2-2.2c0-1.5-0.7-2.6-2.2-2.6h-9.9c-1.5,0-2.2,0.7-2.2,2.6v4.4c0,0.7,0.4,1.1,0.7,1.5c0.4,0.4,1.1,0.7,1.8,0.7
			h5.5c1.1,0,2.2,0.4,3.3,1.1c0.7,0.7,1.1,1.8,1.1,3.3v4.8c0,1.1-0.4,2.2-1.1,3.3c-0.7,0.7-1.8,1.5-3.3,1.5h-5.5
			c-1.5,0-2.2,0.7-2.2,2.2v1.1c0,1.5,0.7,2.2,2.2,2.2H445.1z"/>
		<path class="st0" d="M575.8,71.5c3.7,0,6.6,1.1,9.2,3.7s3.7,5.5,3.7,8.8v46c0,3.7-1.1,6.6-3.7,8.8c-2.6,2.6-5.5,3.7-9.2,3.7h-98.2
			c-3.7,0-6.6-1.1-8.8-3.7c-2.6-2.6-3.7-5.5-3.7-8.8V84c0-2.6,0.7-4.8,2.2-7c1.5-1.8,2.9-3.7,5.2-4.4c1.5-0.7,2.6-1.5,3.3-2.6
			c0.7-1.1,1.1-2.6,1.1-4v-9.6V34.7c0-2.6,0.7-4.8,2.2-7c1.5-2.2,3.3-3.7,5.5-4.4c1.5-0.7,3.3-1.1,4.8-1.1h76.2
			c3.3,0,6.3,1.1,8.8,3.7c2.2,2.6,3.7,5.5,3.7,8.8v9.2c0,3.3-1.1,6.3-3.7,8.8c-2.2,2.2-5.2,3.7-8.8,3.7h-18.8
			c-1.5,0-2.2-0.7-2.6-1.8c-0.4-1.5-1.1-2.6-2.2-3.3c-1.1-0.7-2.6-1.5-4-1.5h-16.2c-1.8,0-3.3,0.7-4.8,1.8c-1.5,1.5-1.8,2.9-1.8,4.8
			v15.8c0,1.8,0.7,3.7,1.8,4.8c1.5,1.5,2.9,1.8,4.8,1.8h16.9c1.1,0,1.8-0.4,1.8-1.5c0-0.7-0.7-1.5-2.2-1.5h-5.9
			c-1.5,0-2.2-0.7-2.2-2.2c0-1.5,0.7-2.6,2.2-2.6h11.8h4.8L575.8,71.5L575.8,71.5z"/>
		<path class="st0" d="M706,71.9c3.7,0,6.6,1.1,8.8,3.7c2.6,2.6,3.7,5.5,3.7,8.8V130c0,3.7-1.1,6.6-3.7,8.8
			c-2.6,2.6-5.5,3.7-8.8,3.7h-16.2c-3.3,0-5.9-1.1-8.1-3.3c-2.2-2.2-3.3-5.2-3.3-8.1v-18c0-0.7-0.4-1.5-0.7-1.8
			c-0.7-0.4-1.1-0.7-2.2-0.7c-1.8,0-2.6,0.7-2.6,2.6v18c0,3.3-1.1,5.9-3.3,8.1c-2.2,2.2-5.2,3.3-8.1,3.3h-53.4
			c-3.3,0-6.3-1.1-8.8-3.7s-3.7-5.5-3.7-8.8V84.4c0-3.7,1.1-6.6,3.7-8.8c2.6-2.6,5.5-3.7,8.8-3.7c0.7,0,1.8-0.4,2.2-0.7
			c0.7-0.7,1.1-1.5,1.1-2.2l4-33.9c0.4-3.7,1.8-6.6,4.8-8.8c2.9-2.6,6.3-3.7,9.6-3.7h27.2h26.9c3.7,0,6.6,1.1,9.6,3.7
			c2.9,2.6,4.4,5.5,4.8,8.8l4,33.9c0,0.7,0.4,1.5,1.1,2.2C704.2,71.5,704.9,71.9,706,71.9z M678.4,49.1c0-0.7-0.4-1.5-0.7-1.8
			c-0.7-0.4-1.1-0.7-2.2-0.7c-1.8,0-2.6,0.7-2.6,2.6v19.9c0,1.8,0.7,2.6,2.6,2.6c0.7,0,1.5-0.4,2.2-0.7s0.7-1.1,0.7-1.8V49.1z"/>
		<path class="st0" d="M797.6,22.2c3.7,0,7,1.5,9.6,4c2.6,2.6,4,5.9,4,9.9v22.1c0,1.1-0.4,1.8-1.1,2.6c-0.7,0.7-1.5,1.1-2.2,1.1
			h-13.6c-0.7,0-1.8-0.4-2.6-1.1c-0.7-0.7-1.1-1.5-1.1-2.6c0-0.7-0.4-1.8-1.1-2.2c-0.7-0.7-1.5-1.1-2.2-1.1h-1.1
			c-0.7,0-1.8,0.4-2.6,1.1s-1.1,1.5-1.1,2.2v8.1c0,1.5,0.4,2.6,1.1,3.7c0.7,1.1,1.8,2.2,2.9,2.6c2.2,0.7,4,2.6,5.5,4.4
			c1.5,2.2,2.2,4.4,2.2,7v46c0,3.7-1.1,6.6-3.7,8.8c-2.6,2.6-5.5,3.7-9.2,3.7h-42.7c-3.7,0-6.6-1.1-9.2-3.7s-3.7-5.5-3.7-8.8V84
			c0-2.6,0.7-5.2,2.2-7c1.5-2.2,3.3-3.7,5.5-4.4c1.1-0.7,2.2-1.5,2.9-2.6c0.7-1.1,1.1-2.6,1.1-3.7v-8.1c0-0.7-0.4-1.8-1.1-2.2
			c-0.7-0.7-1.5-1.1-2.2-1.1h-1.1c-0.7,0-1.8,0.4-2.2,1.1c-0.7,0.7-1.1,1.5-1.1,2.2c0,1.1-0.4,1.8-1.1,2.6c-0.7,0.7-1.5,1.1-2.6,1.1
			H713c-1.1,0-1.8-0.4-2.6-1.1c-0.7-0.7-1.1-1.5-1.1-2.6V36.2c0-3.7,1.5-7,4-9.9c2.6-2.6,5.9-4,9.6-4
			C722.9,22.2,797.6,22.2,797.6,22.2z"/>
		<path class="st0" d="M879.3,72.2c2.2,0.7,4,2.6,5.5,4.4c1.5,2.2,2.2,4.4,2.2,7v46c0,3.7-1.1,6.6-3.7,8.8c-2.6,2.6-5.5,3.7-9.2,3.7
			h-55.9c-3.7,0-6.6-1.1-8.8-3.7c-2.6-2.6-3.7-5.5-3.7-8.8V84c0-2.6,0.7-5.2,2.2-7c1.5-2.2,3.3-3.7,5.5-4.4c1.5-0.7,2.6-1.5,3.3-2.6
			c0.7-1.1,1.1-2.6,1.1-3.7V34.7c0-3.7,1.1-6.6,3.7-8.8c2.6-2.6,5.5-3.7,8.8-3.7h32.4c3.7,0,6.6,1.1,8.8,3.7
			c2.6,2.6,3.7,5.5,3.7,8.8V66c0,1.5,0.4,2.6,1.1,3.7C877.1,71.1,878.2,71.9,879.3,72.2z"/>
		<path class="st0" d="M1004.8,71.9c3.7,0,6.6,1.1,8.8,3.7c2.6,2.6,3.7,5.5,3.7,8.8V130c0,3.7-1.1,6.6-3.7,8.8
			c-2.6,2.6-5.5,3.7-8.8,3.7h-97.9c-3.3,0-6.3-1.1-8.8-3.7s-3.7-5.5-3.7-8.8V84.4c0-3.7,1.1-6.6,3.7-8.8c2.6-2.6,5.5-3.7,8.8-3.7
			c0.7,0,1.8-0.4,2.2-0.7c0.7-0.7,1.1-1.5,1.1-2.2l4-33.9c0.4-3.7,1.8-6.6,4.8-8.8c2.9-2.6,6.3-3.7,9.6-3.7h27.2h26.9
			c3.7,0,6.6,1.1,9.6,3.7c2.9,2.6,4.4,5.5,4.8,8.8l4,33.9c0,0.7,0.4,1.5,1.1,2.2C1003.3,71.5,1004.1,71.9,1004.8,71.9z M958.5,49.8
			c0-0.7-0.4-1.5-0.7-2.2c-0.4-0.7-1.1-0.7-1.8-0.7c-0.7,0-1.5,0.4-2.2,0.7c-0.7,0.7-0.7,1.1-0.7,2.2v19.9c0,0.7,0.4,1.5,0.7,1.8
			c0.7,0.4,1.1,0.7,2.2,0.7c1.8,0,2.6-0.7,2.6-2.6V49.8z"/>
		<path class="st0" d="M1143.2,72.2c2.2,0.7,4,2.6,5.5,4.4c1.5,2.2,2.2,4.4,2.2,7v46c0,3.7-1.1,6.6-3.7,8.8
			c-2.6,2.6-5.5,3.7-8.8,3.7H1109c-3.7,0-6.6-1.1-8.8-3.7c-2.6-2.6-3.7-5.5-3.7-8.8v-26.5V83.6v-9.9c0-2.6-1.1-5.2-2.9-7.4l-2.6-2.6
			l0,0l-9.6-9.6c-1.5-1.1-2.6-1.1-4,0c-1.5,1.5-1.5,2.6,0,4l10.3,10.7c2.2,1.8,2.9,4.4,2.9,7.4V84v19.5V130c0,3.7-1.1,6.6-3.7,8.8
			c-2.6,2.6-5.5,3.7-8.8,3.7h-41.2c-3.7,0-6.6-1.1-8.8-3.7c-2.6-2.6-3.7-5.5-3.7-8.8V84c0-2.6,0.7-5.2,2.2-7
			c1.5-2.2,3.3-3.7,5.5-4.4c1.5-0.7,2.6-1.5,3.3-2.6c0.7-1.1,1.1-2.6,1.1-3.7V34.7c0-3.7,1.1-6.6,3.7-8.8c2.6-2.6,5.5-3.7,8.8-3.7
			h11.4c4,0,8.1,0.7,11.8,2.6c3.7,1.5,7,3.7,9.6,6.3l12.5,11.4c0.4,0.4,1.1,0.4,1.5,0.4c0.7-0.4,0.7-0.7,0.7-1.1V34
			c0-3.3,1.1-6.3,3.7-8.5c2.2-2.2,5.2-3.7,8.5-3.7h18.4c3.7,0,6.6,1.1,8.8,3.7c2.6,2.6,3.7,5.5,3.7,8.8v31.3c0,1.5,0.4,2.6,1.1,3.7
			C1141,71.1,1142.1,71.9,1143.2,72.2z"/>
	</g>
	<g>
		<path class="st0" d="M86,155c7.4,0,14,1.5,20.2,4.8c6.3,3.3,11.4,7.4,15.5,12.5s7,11.4,8.8,18.4c1.5,7,1.5,14.4-0.4,21.7
			c-1.1,4.8-3.3,9.6-6.3,13.6c-2.9,4-6.3,7.7-9.9,10.7c-3.7,2.9-8.1,5.2-12.9,7c-4.8,1.8-9.6,2.6-14.7,2.6c-0.4,0-0.4,0.4-0.4,0.7
			v15.8c0,3.7-1.1,6.6-3.7,8.8c-2.6,2.6-5.5,3.7-9.2,3.7H25.6c-3.7,0-6.6-1.1-8.8-3.7c-2.6-2.6-3.7-5.5-3.7-8.8v-46
			c0-2.6,0.7-5.2,2.2-7c1.5-2.2,3.3-3.7,5.5-4.4c1.5-0.7,2.6-1.5,3.3-2.6c0.7-1.1,1.1-2.6,1.1-3.7v-31.3c0-3.7,1.1-6.6,3.7-8.8
			c2.6-2.6,5.5-3.7,8.8-3.7L86,155L86,155z M90.8,180.8c0-1.8-0.7-2.6-2.6-2.6c-1.8,0-2.6,0.7-2.6,2.6V201c0,1.8,0.7,2.6,2.6,2.6
			c1.8,0,2.6-0.7,2.6-2.6V180.8z"/>
		<path class="st0" d="M228.8,205.1c2.2,0.7,4,2.6,5.5,4.4c1.5,2.2,2.2,4.4,2.2,7v46.4c0,3.7-1.1,6.6-3.7,8.8
			c-2.6,2.6-5.5,3.7-8.8,3.7h-75.1c-3.7,0-6.6-1.1-8.8-3.7c-2.6-2.6-3.7-5.5-3.7-8.8v-46c0-2.6,0.7-5.2,2.2-7
			c1.5-2.2,3.3-3.7,5.5-4.4c1.5-0.7,2.6-1.5,3.3-2.6c0.7-1.1,1.1-2.6,1.1-3.7v-31.3c0-3.7,1.1-6.6,3.7-8.8c2.6-2.6,5.5-3.7,8.8-3.7
			h15.8c1.8,0,3.7,0.7,4.8,2.2c1.5,1.5,2.2,2.9,2.2,5.2V194c0,0.7-0.4,1.8-1.1,2.2c-0.7,0.7-1.5,1.1-2.2,1.1h-3.7
			c-0.7,0-1.5,0.4-2.2,0.7c-0.7,0.4-0.7,1.1-0.7,1.8c0,0.7,0.4,1.5,0.7,1.8c0.7,0.4,1.1,0.7,2.2,0.7h19.9c0.7,0,1.5-0.4,2.2-0.7
			c0.7-0.4,0.7-1.1,0.7-1.8c0-0.7-0.4-1.5-0.7-1.8c-0.7-0.4-1.1-0.7-2.2-0.7h-3.7c-0.7,0-1.8-0.4-2.2-1.1c-0.7-0.7-1.1-1.5-1.1-2.2
			v-31.3c0-1.8,0.7-3.7,2.2-5.2c1.5-1.5,2.9-2.2,4.8-2.2h15.8c3.3,0,6.3,1.1,8.8,3.7s3.7,5.5,3.7,8.8v31.3c0,1.5,0.4,2.6,1.1,3.7
			C226.5,203.6,227.7,204.7,228.8,205.1z"/>
		<path class="st0" d="M253.4,204.7L253.4,204.7C253.8,204.7,253.8,204.7,253.4,204.7l42.3-8.1c2.2-0.4,4.8-0.7,7.7-0.7h6.6
			c0.7,0,1.5-0.4,1.8-0.7c0.4-0.7,0.7-1.1,0.7-2.2c0-1.8-0.7-2.6-2.6-2.6h-20.2h-19.5c-2.2,0-4.4-0.7-5.9-2.6
			c-1.5-1.5-2.6-3.7-2.6-5.9v-12.1c0-2.2,0.4-4,1.1-5.9c0.7-1.8,1.8-3.3,3.3-4.8c1.5-1.5,2.9-2.2,4.8-3.3c1.8-0.7,3.7-1.1,5.9-1.1
			h46.7c2.2,0,4,0.4,5.9,1.1c1.8,0.7,3.3,1.8,4.8,3.3c1.5,1.5,2.2,2.9,2.9,4.8c0.7,1.8,1.1,3.7,1.1,5.9v10.7v9.9
			c0,2.2-0.7,4.4-2.6,5.9c-1.5,1.5-3.7,2.6-5.9,2.6h-4h-5.2c-0.7,0-1.5,0.4-2.2,0.7c-0.7,0.7-0.7,1.1-0.7,2.2c0,0.7,0.4,1.5,0.7,1.8
			c0.7,0.4,1.1,0.7,2.2,0.7h5.2h18.8c3.7,0,6.6,1.1,8.8,3.7c2.6,2.6,3.7,5.5,3.7,8.8v46c0,3.7-1.1,6.6-3.7,8.8
			c-2.6,2.6-5.5,3.7-8.8,3.7h-88.3c-3.7,0-6.6-1.1-8.8-3.7c-2.6-2.6-3.7-5.5-3.7-8.8v-46c0-2.9,0.7-5.5,2.6-7.7
			C248.3,206.5,250.5,205.1,253.4,204.7z"/>
		<path class="st0" d="M373.4,204.7L373.4,204.7C373.7,204.7,373.7,204.7,373.4,204.7l42.3-7.7c2.2-0.4,4.8-0.7,7.7-0.7h6.6
			c0.7,0,1.5-0.4,1.8-0.7c0.4-0.7,0.7-1.1,0.7-2.2c0-1.8-0.7-2.6-2.6-2.6h-20.2h-19.5c-2.2,0-4.4-0.7-5.9-2.6
			c-1.5-1.5-2.6-3.7-2.6-5.9v-12.1c0-2.2,0.4-4,1.1-5.9c0.7-1.8,1.8-3.3,3.3-4.8c1.5-1.5,2.9-2.2,4.8-3.3c1.8-0.7,3.7-1.1,5.9-1.1
			h46.7c2.2,0,4,0.4,5.9,1.1c1.8,0.7,3.3,1.8,4.8,3.3c1.5,1.5,2.2,2.9,2.9,4.8s1.1,3.7,1.1,5.9v10.7v9.9c0,2.2-0.7,4.4-2.6,5.9
			c-1.5,1.5-3.7,2.6-5.9,2.6h-4h-5.2c-0.7,0-1.5,0.4-2.2,0.7c-0.7,0.7-0.7,1.1-0.7,2.2c0,0.7,0.4,1.5,0.7,1.8
			c0.7,0.4,1.1,0.7,2.2,0.7h5.2h18.8c3.7,0,6.6,1.1,8.8,3.7c2.6,2.6,3.7,5.5,3.7,8.8v45.6c0,3.7-1.1,6.6-3.7,8.8
			c-2.6,2.6-5.5,3.7-8.8,3.7h-87.9c-3.7,0-6.6-1.1-8.8-3.7c-2.6-2.6-3.7-5.5-3.7-8.8v-46c0-2.9,0.7-5.5,2.6-7.7
			C368.2,206.5,370.4,205.1,373.4,204.7z"/>
		<path class="st0" d="M559.6,204.3c3.7,0,6.6,1.1,9.2,3.7c2.6,2.6,3.7,5.5,3.7,8.8v46c0,3.7-1.1,6.6-3.7,8.8
			c-2.6,2.6-5.5,3.7-9.2,3.7h-63.3c-3.7,0-6.6-1.1-8.8-3.7c-2.6-2.6-3.7-5.5-3.7-8.8v-46c0-2.6,0.7-5.2,2.2-7
			c1.5-2.2,3.3-3.7,5.5-4.4c1.5-0.7,2.6-1.5,3.3-2.6c0.7-1.1,1.1-2.6,1.1-3.7v-31.3c0-3.7,1.1-6.6,3.7-8.8c2.6-2.6,5.5-3.7,8.8-3.7
			h23.2c3.3,0,6.3,1.1,8.5,3.3c2.2,2.2,3.3,5.2,3.3,8.5v37.5v7.7c0,2.2,0.7,4,2.2,5.5c1.5,1.5,3.7,2.2,5.9,1.8
			c1.8-0.4,3.7-1.1,4.8-2.6c1.1-1.5,1.8-3.3,1.8-5.2v-5.5c0-0.7,0.4-1.1,0.7-1.5C558.8,204.3,559.2,204.3,559.6,204.3z"/>
		<path class="st0" d="M677.3,204c3.7,0,6.6,1.1,8.8,3.7s3.7,5.5,3.7,9.2v45.6c0,3.7-1.1,6.6-3.7,8.8c-2.6,2.6-5.5,3.7-8.8,3.7
			h-85.4c-3.7,0-6.6-1.1-8.8-3.7c-2.6-2.6-3.7-5.5-3.7-8.8v-45.6c0-2.6,0.7-5.2,2.2-7c1.5-2.2,3.3-3.7,5.5-4.4
			c1.5-0.7,2.6-1.5,3.3-2.6c0.7-1.1,1.1-2.6,1.1-3.7v-31.3c0-3.7,1.1-6.6,3.7-8.8c2.6-2.6,5.5-3.7,8.8-3.7h2.9h22.8h4.4h10.3h21.3
			c3.3,0,6.3,1.1,8.8,3.7s3.7,5.5,3.7,8.8v2.9v4.8v2.2c0,1.5-0.7,2.2-2.2,2.2h-14.4c-1.5,0-2.6-0.7-2.6-2.2c0-1.5-0.7-2.2-2.2-2.2
			h-9.9c-1.5,0-2.2,0.7-2.2,2.2v4c0,0.7,0.4,1.1,0.7,1.5c0.4,0.4,1.1,0.7,1.8,0.7h5.5c1.1,0,2.2,0.4,3.3,1.1
			c0.7,0.7,1.1,1.8,1.1,3.3v4.8c0,1.1-0.4,2.2-1.1,3.3c-0.7,0.7-1.8,1.5-3.3,1.5h-5.5c-1.5,0-2.2,0.7-2.2,2.6v1.1
			c0,1.5,0.7,2.2,2.2,2.2L677.3,204z"/>
	</g>
	<g>
		<path class="st1" d="M758.6,218.3c1.8,0.7,3.3,1.8,4.4,3.7s1.8,3.7,1.8,5.9v37.2c0,2.9-1.1,5.2-2.9,7.4c-2.2,1.8-4.4,2.9-7.4,2.9
			h-45.3c-2.9,0-5.2-1.1-7.4-2.9c-1.8-1.8-2.9-4.4-2.9-7.4v-37.2c0-2.2,0.7-4,1.8-5.9c1.1-1.8,2.6-2.9,4.4-3.7
			c1.1-0.4,1.8-1.1,2.6-2.2c0.7-1.1,0.7-1.8,0.7-2.9v-25.4c0-2.9,1.1-5.2,2.9-7.4c1.8-1.8,4.4-2.9,7-2.9h26.1c2.9,0,5.2,1.1,7.4,2.9
			c1.8,1.8,2.9,4.4,2.9,7.4v25.4c0,1.1,0.4,2.2,0.7,2.9C756.8,217.2,757.5,218,758.6,218.3z"/>
	</g>
	<g>
		<path class="st2" d="M769.3,211.7c-1.8-0.7-3.3-1.8-4.4-3.7c-1.1-1.8-1.8-3.7-1.8-5.9v-37.5c0-2.9,1.1-5.2,2.9-7.4
			c2.2-1.8,4.4-2.9,7.4-2.9h45.3c2.9,0,5.2,1.1,7.4,2.9c1.8,1.8,2.9,4.4,2.9,7.4v37.2c0,2.2-0.7,4-1.8,5.9c-1.1,1.8-2.6,2.9-4.4,3.7
			c-1.1,0.4-1.8,1.1-2.6,2.2c-0.7,1.1-0.7,1.8-0.7,2.9v25.4c0,2.9-1.1,5.2-2.9,7.4c-1.8,1.8-4.4,2.9-7,2.9h-26.5
			c-2.9,0-5.2-1.1-7.4-2.9c-1.8-1.8-2.9-4.4-2.9-7.4v-25.4c0-1.1-0.4-2.2-0.7-2.9C771.2,212.8,770.4,212.1,769.3,211.7z"/>
	</g>
	<g>
		<g>
			<path class="st3" d="M887.1,218.3c1.8,0.7,3.3,1.8,4.4,3.7s1.8,3.7,1.8,5.9v37.2c0,2.9-1.1,5.2-2.9,7.4c-2.2,1.8-4.4,2.9-7.4,2.9
				h-45.3c-2.9,0-5.2-1.1-7.4-2.9c-1.8-1.8-2.9-4.4-2.9-7.4v-37.2c0-2.2,0.7-4,1.8-5.9c1.1-1.8,2.6-2.9,4.4-3.7
				c1.1-0.4,1.8-1.1,2.6-2.2c0.7-1.1,0.7-1.8,0.7-2.9v-25.4c0-2.9,1.1-5.2,2.9-7.4c1.8-1.8,4.4-2.9,7-2.9h26.1
				c2.9,0,5.2,1.1,7.4,2.9c1.8,1.8,2.9,4.4,2.9,7.4v25.4c0,1.1,0.4,2.2,0.7,2.9C885.2,217.2,886,218,887.1,218.3z"/>
		</g>
	</g>
	<g>
		<g>
			<path class="st4" d="M898.1,211.7c-1.8-0.7-3.3-1.8-4.4-3.7c-1.1-1.8-1.8-3.7-1.8-5.9v-37.5c0-2.9,1.1-5.2,2.9-7.4
				c2.2-1.8,4.4-2.9,7.4-2.9h45.3c2.9,0,5.2,1.1,7.4,2.9c1.8,1.8,2.9,4.4,2.9,7.4v37.2c0,2.2-0.7,4-1.8,5.9
				c-1.1,1.8-2.6,2.9-4.4,3.7c-1.1,0.4-1.8,1.1-2.6,2.2c-0.7,1.1-0.7,1.8-0.7,2.9v25.4c0,2.9-1.1,5.2-2.9,7.4
				c-1.8,1.8-4.4,2.9-7,2.9h-26.5c-2.9,0-5.2-1.1-7.4-2.9c-1.8-1.8-2.9-4.4-2.9-7.4v-25.4c0-1.1-0.4-2.2-0.7-2.9
				C899.9,212.8,898.8,212.1,898.1,211.7z"/>
		</g>
	</g>
	<g>
		<g>
			<path class="st5" d="M1015.9,218.3c1.8,0.7,3.3,1.8,4.4,3.7c1.1,1.8,1.8,3.7,1.8,5.9v37.2c0,2.9-1.1,5.2-2.9,7.4
				c-2.2,1.8-4.4,2.9-7.4,2.9h-45.3c-2.9,0-5.2-1.1-7.4-2.9c-1.8-1.8-2.9-4.4-2.9-7.4v-37.2c0-2.2,0.7-4,1.8-5.9s2.6-2.9,4.4-3.7
				c1.1-0.4,1.8-1.1,2.6-2.2c0.7-1.1,0.7-1.8,0.7-2.9v-25.4c0-2.9,1.1-5.2,2.9-7.4c1.8-2.2,4.4-2.9,7-2.9h26.1
				c2.9,0,5.2,1.1,7.4,2.9c1.8,1.8,2.9,4.4,2.9,7.4v25.4c0,1.1,0.4,2.2,0.7,2.9C1014,217.2,1014.8,218,1015.9,218.3z"/>
		</g>
	</g>
	<g>
		<g>
			<path class="st6" d="M1026.5,211.7c-1.8-0.7-3.3-1.8-4.4-3.7c-1.1-1.8-1.8-3.7-1.8-5.9v-37.5c0-2.9,1.1-5.2,2.9-7.4
				c2.2-1.8,4.4-2.9,7.4-2.9h45.3c2.9,0,5.2,1.1,7.4,2.9c1.8,1.8,2.9,4.4,2.9,7.4v37.2c0,2.2-0.7,4-1.8,5.9
				c-1.1,1.8-2.6,2.9-4.4,3.7c-1.1,0.4-1.8,1.1-2.6,2.2c-0.7,1.1-0.7,1.8-0.7,2.9v25.4c0,2.9-1.1,5.2-2.9,7.4
				c-1.8,1.8-4.4,2.9-7,2.9h-26.1c-2.9,0-5.2-1.1-7.4-2.9c-1.8-1.8-2.9-4.4-2.9-7.4v-25.4c0-1.1-0.4-2.2-0.7-2.9
				C1028.4,212.8,1027.6,212.1,1026.5,211.7z"/>
		</g>
	</g>
	<g>
		<g>
			<path class="st0" d="M1144.3,218.3c1.8,0.7,3.3,1.8,4.4,3.7c1.1,1.8,1.8,3.7,1.8,5.9v37.2c0,2.9-1.1,5.2-2.9,7.4
				c-2.2,1.8-4.4,2.9-7.4,2.9H1095c-2.9,0-5.2-1.1-7.4-2.9c-1.8-1.8-2.9-4.4-2.9-7.4v-37.2c0-2.2,0.7-4,1.8-5.9s2.6-2.9,4.4-3.7
				c1.1-0.4,1.8-1.1,2.6-2.2c0.7-1.1,0.7-1.8,0.7-2.9v-25.4c0-2.9,1.1-5.2,2.9-7.4s4.4-2.9,7-2.9h26.1c2.9,0,5.2,1.1,7.4,2.9
				c1.8,1.8,2.9,4.4,2.9,7.4v25.4c0,1.1,0.4,2.2,0.7,2.9C1142.4,217.2,1143.5,218,1144.3,218.3z"/>
		</g>
	</g>
</g>
</svg>
