<?xml version="1.0" encoding="utf-8"?>
<!-- Generator: Adobe Illustrator 26.0.1, SVG Export Plug-In . SVG Version: 6.00 Build 0)  -->
<svg version="1.1" id="Слой_1" xmlns="http://www.w3.org/2000/svg" xmlns:xlink="http://www.w3.org/1999/xlink" x="0px" y="0px"
	 viewBox="0 0 128 128" style="enable-background:new 0 0 128 128;" xml:space="preserve">
<style type="text/css">
	.st0{fill:#EA5151;}
	.st1{fill:#F28A3D;}
</style>
<g>
	<g>
		<path class="st0" d="M58.9,67.3c1.8,0.7,3.2,1.8,4.2,3.5c1.1,1.8,1.8,3.5,1.8,5.6V112c0,2.8-1.1,4.9-2.8,7c-2.1,1.8-4.2,2.8-7,2.8
			H11.8c-2.8,0-4.9-1.1-7-2.8C3,117.2,2,114.8,2,112V76.5c0-2.1,0.7-3.9,1.8-5.6c1.1-1.8,2.5-2.8,4.2-3.5c1.1-0.4,1.8-1.1,2.5-2.1
			s0.7-1.8,0.7-2.8V38.2c0-2.8,1.1-4.9,2.8-7c1.8-1.8,4.2-2.8,6.7-2.8h25c2.8,0,4.9,1.1,7,2.8c1.8,1.8,2.8,4.2,2.8,7v24.2
			c0,1.1,0.4,2.1,0.7,2.8C57.1,66.3,57.9,67,58.9,67.3z"/>
	</g>
	<g>
		<path class="st1" d="M69.1,61c-1.8-0.7-3.2-1.8-4.2-3.5s-1.8-3.5-1.8-5.6V16c0-2.8,1.1-4.9,2.8-7c2.1-1.8,4.2-2.8,7-2.8h43.2
			c2.8,0,4.9,1.1,7,2.8c1.8,1.8,2.8,4.2,2.8,7v35.5c0,2.1-0.7,3.9-1.8,5.6c-1.1,1.8-2.5,2.8-4.2,3.5c-1.1,0.4-1.8,1.1-2.5,2.1
			c-0.7,1.1-0.7,1.8-0.7,2.8v24.2c0,2.8-1.1,4.9-2.8,7c-1.8,1.8-4.2,2.8-6.7,2.8H82.1c-2.8,0-4.9-1.1-7-2.8c-1.8-1.8-2.8-4.2-2.8-7
			V65.6c0-1.1-0.4-2.1-0.7-2.8C70.9,62.1,70.2,61.4,69.1,61z"/>
	</g>
</g>
</svg>
